<svg xmlns="http://www.w3.org/2000/svg" xmlns:xlink="http://www.w3.org/1999/xlink" width="500" zoomAndPan="magnify" viewBox="0 0 375 374.999991" height="500" preserveAspectRatio="xMidYMid meet" version="1.0"><defs><clipPath id="c0df3faeab"><path d="M 17.101562 17.101562 L 357.601562 17.101562 L 357.601562 357.601562 L 17.101562 357.601562 Z M 17.101562 17.101562 " clip-rule="nonzero"/></clipPath></defs><g clip-path="url(#c0df3faeab)"><path fill="#e93b81" d="M 305.464844 17.101562 L 69.53125 17.101562 C 67.8125 17.101562 66.101562 17.1875 64.390625 17.359375 C 62.683594 17.527344 60.988281 17.78125 59.304688 18.117188 C 57.621094 18.453125 55.960938 18.871094 54.316406 19.371094 C 52.675781 19.871094 51.058594 20.449219 49.476562 21.105469 C 47.890625 21.765625 46.339844 22.5 44.824219 23.308594 C 43.3125 24.117188 41.84375 25 40.414062 25.953125 C 38.988281 26.90625 37.609375 27.929688 36.285156 29.019531 C 34.957031 30.109375 33.6875 31.257812 32.472656 32.472656 C 31.257812 33.6875 30.109375 34.957031 29.019531 36.285156 C 27.929688 37.609375 26.90625 38.988281 25.953125 40.414062 C 25 41.84375 24.117188 43.3125 23.308594 44.824219 C 22.5 46.339844 21.765625 47.890625 21.105469 49.476562 C 20.449219 51.058594 19.871094 52.675781 19.371094 54.316406 C 18.871094 55.960938 18.453125 57.621094 18.117188 59.304688 C 17.78125 60.988281 17.527344 62.683594 17.359375 64.390625 C 17.1875 66.101562 17.101562 67.8125 17.101562 69.53125 L 17.101562 305.464844 C 17.101562 307.179688 17.1875 308.890625 17.359375 310.601562 C 17.527344 312.308594 17.78125 314.003906 18.117188 315.6875 C 18.453125 317.371094 18.871094 319.035156 19.371094 320.675781 C 19.871094 322.320312 20.449219 323.933594 21.105469 325.519531 C 21.765625 327.105469 22.5 328.652344 23.308594 330.167969 C 24.117188 331.679688 25 333.152344 25.953125 334.578125 C 26.90625 336.003906 27.929688 337.382812 29.019531 338.707031 C 30.109375 340.035156 31.257812 341.304688 32.472656 342.519531 C 33.6875 343.734375 34.957031 344.882812 36.285156 345.972656 C 37.609375 347.0625 38.988281 348.085938 40.414062 349.039062 C 41.84375 349.992188 43.3125 350.875 44.824219 351.683594 C 46.339844 352.496094 47.890625 353.226562 49.476562 353.886719 C 51.058594 354.542969 52.675781 355.121094 54.316406 355.621094 C 55.960938 356.121094 57.621094 356.539062 59.304688 356.875 C 60.988281 357.210938 62.683594 357.464844 64.390625 357.636719 C 66.101562 357.804688 67.8125 357.890625 69.53125 357.894531 L 305.464844 357.894531 C 307.179688 357.890625 308.890625 357.804688 310.601562 357.636719 C 312.308594 357.464844 314.003906 357.210938 315.6875 356.875 C 317.371094 356.539062 319.035156 356.121094 320.675781 355.621094 C 322.320312 355.121094 323.933594 354.542969 325.519531 353.886719 C 327.105469 353.226562 328.652344 352.496094 330.167969 351.683594 C 331.679688 350.875 333.152344 349.992188 334.578125 349.039062 C 336.003906 348.085938 337.382812 347.0625 338.707031 345.972656 C 340.035156 344.882812 341.304688 343.734375 342.519531 342.519531 C 343.734375 341.304688 344.882812 340.035156 345.972656 338.707031 C 347.0625 337.382812 348.085938 336.003906 349.039062 334.578125 C 349.992188 333.152344 350.875 331.679688 351.683594 330.167969 C 352.496094 328.652344 353.226562 327.105469 353.886719 325.519531 C 354.542969 323.933594 355.121094 322.320312 355.621094 320.675781 C 356.121094 319.035156 356.539062 317.371094 356.875 315.6875 C 357.210938 314.003906 357.464844 312.308594 357.636719 310.601562 C 357.804688 308.890625 357.890625 307.179688 357.894531 305.464844 L 357.894531 69.53125 C 357.890625 67.8125 357.804688 66.101562 357.636719 64.390625 C 357.464844 62.683594 357.210938 60.988281 356.875 59.304688 C 356.539062 57.621094 356.121094 55.960938 355.621094 54.316406 C 355.121094 52.675781 354.542969 51.058594 353.886719 49.476562 C 353.226562 47.890625 352.496094 46.339844 351.683594 44.824219 C 350.875 43.3125 349.992188 41.84375 349.039062 40.414062 C 348.085938 38.988281 347.0625 37.609375 345.972656 36.285156 C 344.882812 34.957031 343.734375 33.6875 342.519531 32.472656 C 341.304688 31.257812 340.035156 30.109375 338.707031 29.019531 C 337.382812 27.929688 336.003906 26.90625 334.578125 25.953125 C 333.152344 25 331.679688 24.117188 330.167969 23.308594 C 328.652344 22.5 327.105469 21.765625 325.519531 21.105469 C 323.933594 20.449219 322.320312 19.871094 320.675781 19.371094 C 319.035156 18.871094 317.371094 18.453125 315.6875 18.117188 C 314.003906 17.78125 312.308594 17.527344 310.601562 17.359375 C 308.890625 17.1875 307.179688 17.101562 305.464844 17.101562 Z M 305.464844 115.40625 C 305.464844 116.90625 305.390625 118.40625 305.242188 119.902344 C 305.09375 121.398438 304.875 122.882812 304.582031 124.355469 C 304.289062 125.828125 303.925781 127.285156 303.488281 128.722656 C 303.050781 130.160156 302.546875 131.574219 301.972656 132.960938 C 301.394531 134.351562 300.753906 135.707031 300.046875 137.03125 C 299.339844 138.355469 298.566406 139.644531 297.730469 140.894531 C 296.898438 142.140625 296.003906 143.347656 295.050781 144.507812 C 294.097656 145.671875 293.089844 146.78125 292.027344 147.84375 C 290.964844 148.90625 289.851562 149.914062 288.691406 150.867188 C 287.527344 151.820312 286.324219 152.714844 285.074219 153.550781 C 283.824219 154.386719 282.539062 155.15625 281.214844 155.863281 C 279.886719 156.574219 278.53125 157.214844 277.144531 157.789062 C 275.753906 158.363281 274.34375 158.871094 272.90625 159.304688 C 271.464844 159.742188 270.011719 160.105469 268.539062 160.398438 C 267.0625 160.691406 265.578125 160.914062 264.082031 161.0625 C 262.589844 161.207031 261.089844 161.28125 259.585938 161.28125 C 258.085938 161.28125 256.585938 161.207031 255.089844 161.0625 C 253.59375 160.914062 252.109375 160.691406 250.636719 160.398438 C 249.164062 160.105469 247.707031 159.742188 246.269531 159.304688 C 244.832031 158.871094 243.417969 158.363281 242.03125 157.789062 C 240.644531 157.214844 239.285156 156.574219 237.960938 155.863281 C 236.636719 155.15625 235.347656 154.386719 234.101562 153.550781 C 232.851562 152.714844 231.644531 151.820312 230.484375 150.867188 C 229.324219 149.914062 228.210938 148.90625 227.148438 147.84375 C 226.085938 146.78125 225.078125 145.671875 224.125 144.507812 C 223.171875 143.347656 222.277344 142.140625 221.441406 140.894531 C 220.609375 139.644531 219.835938 138.355469 219.128906 137.03125 C 218.421875 135.707031 217.777344 134.351562 217.203125 132.960938 C 216.628906 131.574219 216.121094 130.160156 215.6875 128.722656 C 215.25 127.285156 214.886719 125.828125 214.59375 124.355469 C 214.300781 122.882812 214.078125 121.398438 213.933594 119.902344 C 213.785156 118.40625 213.710938 116.90625 213.710938 115.40625 C 213.710938 113.902344 213.785156 112.40625 213.933594 110.910156 C 214.078125 109.414062 214.300781 107.929688 214.59375 106.457031 C 214.886719 104.980469 215.25 103.527344 215.6875 102.089844 C 216.121094 100.652344 216.628906 99.238281 217.203125 97.851562 C 217.777344 96.460938 218.421875 95.105469 219.128906 93.78125 C 219.835938 92.453125 220.609375 91.167969 221.441406 89.917969 C 222.277344 88.667969 223.171875 87.464844 224.125 86.300781 C 225.078125 85.140625 226.085938 84.027344 227.148438 82.964844 C 228.210938 81.902344 229.324219 80.894531 230.484375 79.941406 C 231.644531 78.988281 232.851562 78.097656 234.101562 77.261719 C 235.347656 76.425781 236.636719 75.65625 237.960938 74.945312 C 239.285156 74.238281 240.644531 73.597656 242.03125 73.023438 C 243.417969 72.445312 244.832031 71.941406 246.269531 71.503906 C 247.707031 71.070312 249.164062 70.703125 250.636719 70.410156 C 252.109375 70.117188 253.59375 69.898438 255.089844 69.75 C 256.585938 69.601562 258.085938 69.53125 259.585938 69.53125 C 261.089844 69.53125 262.585938 69.605469 264.082031 69.753906 C 265.578125 69.90625 267.0625 70.125 268.535156 70.421875 C 270.007812 70.714844 271.460938 71.082031 272.898438 71.515625 C 274.335938 71.953125 275.746094 72.460938 277.132812 73.035156 C 278.523438 73.613281 279.878906 74.253906 281.203125 74.960938 C 282.527344 75.671875 283.8125 76.441406 285.0625 77.277344 C 286.308594 78.113281 287.515625 79.007812 288.675781 79.960938 C 289.835938 80.914062 290.949219 81.921875 292.011719 82.984375 C 293.074219 84.042969 294.078125 85.15625 295.03125 86.316406 C 295.984375 87.476562 296.878906 88.683594 297.714844 89.929688 C 298.550781 91.179688 299.320312 92.464844 300.03125 93.789062 C 300.738281 95.113281 301.378906 96.472656 301.957031 97.859375 C 302.53125 99.246094 303.039062 100.65625 303.476562 102.09375 C 303.914062 103.53125 304.277344 104.988281 304.574219 106.460938 C 304.867188 107.933594 305.089844 109.417969 305.238281 110.910156 C 305.386719 112.40625 305.460938 113.902344 305.464844 115.40625 Z M 331.679688 305.464844 C 331.675781 306.320312 331.632812 307.179688 331.550781 308.03125 C 331.464844 308.886719 331.339844 309.734375 331.171875 310.574219 C 331 311.417969 330.792969 312.25 330.542969 313.070312 C 330.292969 313.890625 330.003906 314.699219 329.675781 315.492188 C 329.347656 316.285156 328.980469 317.058594 328.574219 317.816406 C 328.171875 318.574219 327.730469 319.308594 327.253906 320.019531 C 326.773438 320.734375 326.265625 321.421875 325.71875 322.085938 C 325.175781 322.75 324.597656 323.386719 323.992188 323.992188 C 323.386719 324.597656 322.75 325.175781 322.085938 325.71875 C 321.421875 326.265625 320.734375 326.773438 320.019531 327.253906 C 319.308594 327.730469 318.574219 328.171875 317.816406 328.574219 C 317.058594 328.980469 316.285156 329.347656 315.492188 329.675781 C 314.699219 330.003906 313.890625 330.292969 313.070312 330.542969 C 312.25 330.792969 311.417969 331.003906 310.574219 331.171875 C 309.734375 331.339844 308.886719 331.464844 308.03125 331.550781 C 307.179688 331.632812 306.320312 331.675781 305.464844 331.679688 L 69.53125 331.679688 C 68.671875 331.675781 67.816406 331.632812 66.960938 331.550781 C 66.105469 331.464844 65.257812 331.339844 64.417969 331.171875 C 63.574219 331.003906 62.742188 330.792969 61.921875 330.542969 C 61.101562 330.292969 60.292969 330.003906 59.5 329.675781 C 58.707031 329.347656 57.933594 328.980469 57.175781 328.574219 C 56.421875 328.171875 55.683594 327.730469 54.972656 327.253906 C 54.257812 326.773438 53.570312 326.265625 52.90625 325.71875 C 52.242188 325.175781 51.609375 324.597656 51 323.992188 C 50.394531 323.386719 49.816406 322.75 49.273438 322.085938 C 48.730469 321.421875 48.21875 320.734375 47.742188 320.019531 C 47.265625 319.308594 46.824219 318.574219 46.417969 317.816406 C 46.011719 317.058594 45.644531 316.285156 45.316406 315.492188 C 44.988281 314.699219 44.699219 313.890625 44.449219 313.070312 C 44.199219 312.25 43.992188 311.417969 43.824219 310.574219 C 43.65625 309.734375 43.527344 308.886719 43.445312 308.03125 C 43.359375 307.179688 43.316406 306.320312 43.316406 305.464844 L 43.316406 296.484375 L 99.695312 215.941406 C 100.890625 214.203125 102.277344 212.636719 103.855469 211.242188 C 105.4375 209.84375 107.160156 208.660156 109.03125 207.683594 C 110.902344 206.710938 112.859375 205.976562 114.910156 205.480469 C 116.960938 204.984375 119.039062 204.746094 121.148438 204.757812 L 121.464844 204.765625 C 123.601562 204.773438 125.703125 205.042969 127.773438 205.570312 C 129.84375 206.101562 131.816406 206.875 133.691406 207.894531 C 135.570312 208.910156 137.292969 210.144531 138.863281 211.589844 C 140.4375 213.035156 141.804688 214.652344 142.976562 216.4375 L 189.699219 286.515625 C 190.265625 287.363281 190.917969 288.136719 191.664062 288.832031 C 192.410156 289.527344 193.226562 290.128906 194.113281 290.632812 C 195 291.136719 195.933594 291.53125 196.910156 291.820312 C 197.890625 292.105469 198.886719 292.277344 199.90625 292.332031 C 200.921875 292.375 201.929688 292.300781 202.929688 292.113281 C 203.933594 291.925781 204.898438 291.628906 205.832031 291.222656 C 206.761719 290.816406 207.636719 290.308594 208.457031 289.703125 C 209.273438 289.097656 210.011719 288.40625 210.671875 287.632812 L 246.421875 244.734375 C 247.640625 243.269531 249.003906 241.953125 250.511719 240.785156 C 252.019531 239.617188 253.632812 238.625 255.355469 237.808594 C 257.082031 236.996094 258.871094 236.375 260.730469 235.953125 C 262.589844 235.527344 264.472656 235.308594 266.378906 235.296875 C 268.292969 235.214844 270.195312 235.355469 272.078125 235.722656 C 273.960938 236.089844 275.773438 236.671875 277.519531 237.464844 C 279.265625 238.261719 280.894531 239.25 282.40625 240.429688 C 283.917969 241.609375 285.273438 242.949219 286.46875 244.449219 L 331.679688 297.207031 Z M 331.679688 305.464844 " fill-opacity="1" fill-rule="nonzero"/></g></svg>