<svg xmlns="http://www.w3.org/2000/svg" xmlns:xlink="http://www.w3.org/1999/xlink" width="500" zoomAndPan="magnify" viewBox="0 0 375 374.999991" height="500" preserveAspectRatio="xMidYMid meet" version="1.0"><defs><clipPath id="e5cb235a39"><path d="M 102.300781 117 L 246 117 L 246 357.601562 L 102.300781 357.601562 Z M 102.300781 117 " clip-rule="nonzero"/></clipPath><clipPath id="93c4016c00"><path d="M 182 17.101562 L 272.550781 17.101562 L 272.550781 108 L 182 108 Z M 182 17.101562 " clip-rule="nonzero"/></clipPath></defs><g clip-path="url(#e5cb235a39)"><path fill="#ffffff" d="M 167.097656 155.117188 C 161.839844 168.894531 156.667969 181.113281 152.46875 193.660156 C 139.066406 233.75 125.179688 273.707031 113.167969 314.214844 C 106.222656 337.644531 116.03125 353.472656 136.640625 356.359375 C 144.140625 357.410156 152.253906 357.371094 159.601562 355.695312 C 204.90625 345.378906 225.035156 308.703125 245.714844 272.761719 C 241.273438 275.996094 237.714844 280.121094 233.949219 284.042969 C 222.347656 296.148438 209.441406 306.492188 193.351562 311.980469 C 190.726562 312.875 186.816406 312.460938 184.574219 311.003906 C 183.386719 310.234375 184.03125 305.789062 184.699219 303.21875 C 185.582031 299.816406 187.304688 296.628906 188.65625 293.347656 C 206.277344 250.671875 224.121094 208.085938 241.292969 165.230469 C 244.265625 157.800781 246.222656 149.046875 245.4375 141.226562 C 244.003906 126.957031 228.980469 116.871094 210.570312 117.257812 C 162.792969 118.277344 128.351562 141.972656 103.835938 181.742188 C 102.929688 183.210938 102.925781 185.226562 102.097656 188.683594 C 122.5 173.640625 139.363281 155.417969 167.097656 155.117188 Z M 167.097656 155.117188 " fill-opacity="1" fill-rule="nonzero"/></g><g clip-path="url(#93c4016c00)"><path fill="#ffffff" d="M 272.34375 62.382812 C 272.34375 63.855469 272.273438 65.328125 272.128906 66.792969 C 271.984375 68.261719 271.769531 69.714844 271.480469 71.164062 C 271.191406 72.609375 270.835938 74.035156 270.40625 75.445312 C 269.980469 76.855469 269.484375 78.242188 268.917969 79.605469 C 268.355469 80.964844 267.726562 82.296875 267.03125 83.597656 C 266.335938 84.898438 265.578125 86.160156 264.761719 87.386719 C 263.941406 88.609375 263.066406 89.792969 262.128906 90.933594 C 261.195312 92.070312 260.207031 93.164062 259.164062 94.203125 C 258.121094 95.246094 257.03125 96.234375 255.890625 97.171875 C 254.753906 98.105469 253.570312 98.980469 252.34375 99.800781 C 251.121094 100.621094 249.855469 101.375 248.558594 102.070312 C 247.257812 102.765625 245.925781 103.394531 244.5625 103.960938 C 243.203125 104.523438 241.816406 105.019531 240.40625 105.449219 C 238.996094 105.875 237.566406 106.234375 236.121094 106.519531 C 234.675781 106.808594 233.21875 107.023438 231.753906 107.167969 C 230.285156 107.3125 228.816406 107.386719 227.34375 107.386719 C 225.867188 107.386719 224.398438 107.3125 222.929688 107.167969 C 221.464844 107.023438 220.007812 106.808594 218.5625 106.519531 C 217.117188 106.234375 215.6875 105.875 214.277344 105.449219 C 212.867188 105.019531 211.484375 104.523438 210.121094 103.960938 C 208.757812 103.394531 207.429688 102.765625 206.128906 102.070312 C 204.828125 101.375 203.566406 100.621094 202.339844 99.800781 C 201.113281 98.980469 199.933594 98.105469 198.792969 97.171875 C 197.652344 96.234375 196.5625 95.246094 195.519531 94.203125 C 194.480469 93.164062 193.488281 92.070312 192.554688 90.933594 C 191.621094 89.792969 190.742188 88.609375 189.925781 87.386719 C 189.105469 86.160156 188.347656 84.898438 187.652344 83.597656 C 186.957031 82.296875 186.328125 80.964844 185.765625 79.605469 C 185.203125 78.242188 184.707031 76.855469 184.277344 75.445312 C 183.851562 74.035156 183.492188 72.609375 183.203125 71.164062 C 182.917969 69.714844 182.699219 68.261719 182.554688 66.792969 C 182.410156 65.328125 182.339844 63.855469 182.339844 62.382812 C 182.339844 60.910156 182.410156 59.4375 182.554688 57.972656 C 182.699219 56.503906 182.917969 55.046875 183.203125 53.601562 C 183.492188 52.15625 183.851562 50.730469 184.277344 49.320312 C 184.707031 47.910156 185.203125 46.523438 185.765625 45.160156 C 186.328125 43.800781 186.957031 42.46875 187.652344 41.167969 C 188.347656 39.867188 189.105469 38.605469 189.925781 37.378906 C 190.742188 36.15625 191.621094 34.972656 192.554688 33.832031 C 193.488281 32.695312 194.480469 31.601562 195.519531 30.5625 C 196.5625 29.519531 197.652344 28.53125 198.792969 27.59375 C 199.933594 26.660156 201.113281 25.78125 202.339844 24.964844 C 203.566406 24.144531 204.828125 23.386719 206.128906 22.695312 C 207.429688 22 208.757812 21.371094 210.121094 20.804688 C 211.484375 20.242188 212.867188 19.746094 214.277344 19.316406 C 215.6875 18.890625 217.117188 18.53125 218.5625 18.246094 C 220.007812 17.957031 221.464844 17.742188 222.929688 17.597656 C 224.398438 17.453125 225.867188 17.378906 227.34375 17.378906 C 228.816406 17.378906 230.285156 17.453125 231.753906 17.597656 C 233.21875 17.742188 234.675781 17.957031 236.121094 18.246094 C 237.566406 18.53125 238.996094 18.890625 240.40625 19.316406 C 241.816406 19.746094 243.203125 20.242188 244.5625 20.804688 C 245.925781 21.371094 247.257812 22 248.558594 22.695312 C 249.855469 23.386719 251.121094 24.144531 252.34375 24.964844 C 253.570312 25.78125 254.753906 26.660156 255.890625 27.59375 C 257.03125 28.53125 258.121094 29.519531 259.164062 30.5625 C 260.207031 31.601562 261.195312 32.695312 262.128906 33.832031 C 263.066406 34.972656 263.941406 36.15625 264.761719 37.378906 C 265.578125 38.605469 266.335938 39.867188 267.03125 41.167969 C 267.726562 42.46875 268.355469 43.800781 268.917969 45.160156 C 269.484375 46.523438 269.980469 47.910156 270.40625 49.320312 C 270.835938 50.730469 271.191406 52.15625 271.480469 53.601562 C 271.769531 55.046875 271.984375 56.503906 272.128906 57.972656 C 272.273438 59.4375 272.34375 60.910156 272.34375 62.382812 Z M 272.34375 62.382812 " fill-opacity="1" fill-rule="nonzero"/></g></svg>