<svg xmlns="http://www.w3.org/2000/svg" xmlns:xlink="http://www.w3.org/1999/xlink" width="500" zoomAndPan="magnify" viewBox="0 0 375 374.999991" height="500" preserveAspectRatio="xMidYMid meet" version="1.0"><path fill="#fff156" d="M 369.320312 188.289062 C 375 222.027344 354.601562 253.433594 324.144531 260.710938 C 293.6875 267.992188 261.285156 249.191406 251.078125 216.535156 C 240.019531 181.167969 251.203125 117.304688 287.75 108.574219 C 324.300781 99.847656 363.171875 151.753906 369.320312 188.289062 Z M 369.320312 188.289062 " fill-opacity="1" fill-rule="nonzero"/><path fill="#fd7b96" d="M 273.746094 119.203125 C 270.492188 119.984375 268.488281 123.25 269.261719 126.5 C 270.039062 129.75 273.308594 131.75 276.558594 130.980469 C 279.8125 130.199219 281.816406 126.9375 281.042969 123.6875 C 280.273438 120.4375 277.003906 118.425781 273.746094 119.203125 Z M 273.746094 119.203125 " fill-opacity="1" fill-rule="nonzero"/><path fill="#fd7b96" d="M 305.054688 111.726562 C 301.804688 112.503906 299.800781 115.769531 300.570312 119.019531 C 301.351562 122.269531 304.617188 124.273438 307.871094 123.5 C 311.121094 122.722656 313.128906 119.457031 312.355469 116.207031 C 311.574219 112.957031 308.308594 110.953125 305.054688 111.726562 Z M 305.054688 111.726562 " fill-opacity="1" fill-rule="nonzero"/><path fill="#fd7b96" d="M 253.949219 174.785156 C 250.699219 175.566406 248.691406 178.828125 249.464844 182.078125 C 250.246094 185.328125 253.511719 187.332031 256.765625 186.558594 C 260.015625 185.78125 262.019531 182.515625 261.25 179.265625 C 260.46875 176.007812 257.203125 174.007812 253.949219 174.785156 Z M 253.949219 174.785156 " fill-opacity="1" fill-rule="nonzero"/><path fill="#fd7b96" d="M 285.253906 167.304688 C 282 168.085938 279.996094 171.351562 280.769531 174.601562 C 281.546875 177.851562 284.816406 179.851562 288.066406 179.082031 C 291.320312 178.300781 293.324219 175.039062 292.550781 171.789062 C 291.773438 168.539062 288.507812 166.527344 285.253906 167.304688 Z M 285.253906 167.304688 " fill-opacity="1" fill-rule="nonzero"/><path fill="#fd7b96" d="M 316.558594 159.828125 C 313.304688 160.605469 311.300781 163.871094 312.074219 167.121094 C 312.851562 170.371094 316.121094 172.375 319.371094 171.601562 C 322.625 170.824219 324.628906 167.558594 323.855469 164.308594 C 323.085938 161.058594 319.808594 159.046875 316.558594 159.828125 Z M 316.558594 159.828125 " fill-opacity="1" fill-rule="nonzero"/><path fill="#fd7b96" d="M 347.863281 152.347656 C 344.609375 153.128906 342.605469 156.390625 343.375 159.640625 C 344.15625 162.890625 347.421875 164.894531 350.675781 164.125 C 353.929688 163.34375 355.933594 160.078125 355.160156 156.828125 C 354.386719 153.578125 351.121094 151.578125 347.863281 152.347656 Z M 347.863281 152.347656 " fill-opacity="1" fill-rule="nonzero"/><path fill="#fd7b96" d="M 269.703125 149.277344 C 269.984375 149.554688 270.238281 149.863281 270.457031 150.191406 C 270.679688 150.523438 270.867188 150.871094 271.019531 151.238281 C 271.171875 151.605469 271.285156 151.984375 271.363281 152.375 C 271.441406 152.765625 271.480469 153.160156 271.480469 153.554688 C 271.480469 153.953125 271.441406 154.347656 271.363281 154.738281 C 271.285156 155.128906 271.171875 155.507812 271.019531 155.875 C 270.867188 156.242188 270.679688 156.589844 270.457031 156.921875 C 270.238281 157.25 269.984375 157.554688 269.703125 157.835938 C 269.421875 158.117188 269.117188 158.371094 268.785156 158.589844 C 268.457031 158.8125 268.105469 158.996094 267.738281 159.148438 C 267.371094 159.300781 266.992188 159.417969 266.601562 159.496094 C 266.210938 159.570312 265.820312 159.609375 265.421875 159.609375 C 265.023438 159.609375 264.628906 159.570312 264.238281 159.496094 C 263.847656 159.417969 263.46875 159.300781 263.101562 159.148438 C 262.734375 159 262.386719 158.8125 262.054688 158.589844 C 261.722656 158.371094 261.417969 158.117188 261.136719 157.835938 C 260.855469 157.558594 260.605469 157.25 260.382812 156.921875 C 260.160156 156.589844 259.976562 156.242188 259.824219 155.875 C 259.671875 155.507812 259.554688 155.128906 259.476562 154.738281 C 259.402344 154.347656 259.363281 153.953125 259.363281 153.558594 C 259.363281 153.160156 259.402344 152.765625 259.476562 152.375 C 259.554688 151.984375 259.671875 151.605469 259.824219 151.238281 C 259.976562 150.871094 260.160156 150.523438 260.382812 150.191406 C 260.605469 149.863281 260.855469 149.558594 261.136719 149.277344 C 261.417969 148.996094 261.722656 148.742188 262.054688 148.523438 C 262.386719 148.300781 262.734375 148.113281 263.101562 147.964844 C 263.46875 147.8125 263.847656 147.695312 264.238281 147.617188 C 264.628906 147.539062 265.023438 147.503906 265.421875 147.503906 C 265.816406 147.503906 266.210938 147.539062 266.601562 147.617188 C 266.992188 147.695312 267.371094 147.8125 267.738281 147.964844 C 268.105469 148.113281 268.457031 148.300781 268.785156 148.523438 C 269.117188 148.742188 269.421875 148.996094 269.703125 149.277344 Z M 269.703125 149.277344 " fill-opacity="1" fill-rule="nonzero"/><path fill="#fd7b96" d="M 295.316406 140.1875 C 292.0625 140.964844 290.058594 144.230469 290.832031 147.480469 C 291.609375 150.730469 294.875 152.734375 298.128906 151.960938 C 301.382812 151.183594 303.386719 147.917969 302.613281 144.667969 C 301.832031 141.417969 298.566406 139.414062 295.316406 140.1875 Z M 295.316406 140.1875 " fill-opacity="1" fill-rule="nonzero"/><path fill="#fd7b96" d="M 326.617188 132.707031 C 323.367188 133.488281 321.363281 136.753906 322.132812 140.003906 C 322.914062 143.25 326.179688 145.253906 329.433594 144.484375 C 332.683594 143.703125 334.691406 140.441406 333.917969 137.191406 C 333.136719 133.941406 329.871094 131.9375 326.617188 132.707031 Z M 326.617188 132.707031 " fill-opacity="1" fill-rule="nonzero"/><path fill="#fd7b96" d="M 265.457031 222.886719 C 262.207031 223.667969 260.203125 226.929688 260.972656 230.179688 C 261.753906 233.429688 265.019531 235.433594 268.273438 234.660156 C 271.523438 233.882812 273.53125 230.617188 272.757812 227.367188 C 271.976562 224.109375 268.710938 222.109375 265.457031 222.886719 Z M 265.457031 222.886719 " fill-opacity="1" fill-rule="nonzero"/><path fill="#fd7b96" d="M 296.761719 215.40625 C 293.511719 216.1875 291.503906 219.453125 292.277344 222.703125 C 293.058594 225.953125 296.324219 227.953125 299.578125 227.183594 C 302.828125 226.402344 304.832031 223.140625 304.0625 219.890625 C 303.28125 216.632812 300.015625 214.628906 296.761719 215.40625 Z M 296.761719 215.40625 " fill-opacity="1" fill-rule="nonzero"/><path fill="#fd7b96" d="M 328.066406 207.929688 C 324.8125 208.707031 322.808594 211.972656 323.582031 215.222656 C 324.363281 218.472656 327.628906 220.476562 330.878906 219.703125 C 334.132812 218.925781 336.136719 215.660156 335.367188 212.410156 C 334.585938 209.160156 331.320312 207.148438 328.066406 207.929688 Z M 328.066406 207.929688 " fill-opacity="1" fill-rule="nonzero"/><path fill="#fd7b96" d="M 359.371094 200.449219 C 356.117188 201.230469 354.113281 204.492188 354.886719 207.742188 C 355.664062 210.992188 358.933594 212.996094 362.183594 212.226562 C 365.4375 211.445312 367.441406 208.179688 366.667969 204.929688 C 365.890625 201.679688 362.621094 199.671875 359.371094 200.449219 Z M 359.371094 200.449219 " fill-opacity="1" fill-rule="nonzero"/><path fill="#fd7b96" d="M 251.507812 207.730469 C 251.0625 205.875 249.808594 204.417969 248.203125 203.664062 C 248.691406 206.980469 249.332031 210.164062 250.117188 213.183594 C 251.402344 211.75 251.988281 209.738281 251.507812 207.730469 Z M 251.507812 207.730469 " fill-opacity="1" fill-rule="nonzero"/><path fill="#fd7b96" d="M 282.972656 201.652344 C 282.972656 202.050781 282.9375 202.441406 282.859375 202.832031 C 282.78125 203.222656 282.664062 203.601562 282.511719 203.96875 C 282.359375 204.335938 282.175781 204.683594 281.953125 205.015625 C 281.730469 205.347656 281.480469 205.652344 281.199219 205.933594 C 280.917969 206.214844 280.613281 206.464844 280.28125 206.6875 C 279.949219 206.90625 279.601562 207.09375 279.234375 207.246094 C 278.867188 207.398438 278.488281 207.511719 278.097656 207.589844 C 277.707031 207.667969 277.3125 207.707031 276.914062 207.707031 C 276.519531 207.707031 276.125 207.667969 275.734375 207.589844 C 275.34375 207.511719 274.964844 207.398438 274.597656 207.246094 C 274.230469 207.09375 273.878906 206.90625 273.550781 206.6875 C 273.21875 206.464844 272.914062 206.214844 272.632812 205.933594 C 272.351562 205.652344 272.097656 205.347656 271.878906 205.015625 C 271.65625 204.683594 271.46875 204.335938 271.316406 203.96875 C 271.164062 203.601562 271.050781 203.222656 270.972656 202.832031 C 270.894531 202.441406 270.855469 202.050781 270.855469 201.652344 C 270.855469 201.253906 270.894531 200.859375 270.972656 200.472656 C 271.050781 200.082031 271.164062 199.703125 271.316406 199.335938 C 271.46875 198.96875 271.65625 198.617188 271.878906 198.289062 C 272.097656 197.957031 272.351562 197.652344 272.632812 197.371094 C 272.914062 197.089844 273.21875 196.839844 273.550781 196.617188 C 273.878906 196.398438 274.230469 196.210938 274.597656 196.058594 C 274.964844 195.90625 275.34375 195.792969 275.734375 195.714844 C 276.125 195.636719 276.519531 195.597656 276.914062 195.597656 C 277.3125 195.597656 277.707031 195.636719 278.097656 195.714844 C 278.488281 195.792969 278.867188 195.90625 279.234375 196.058594 C 279.601562 196.210938 279.949219 196.398438 280.28125 196.617188 C 280.613281 196.839844 280.917969 197.089844 281.199219 197.371094 C 281.480469 197.652344 281.730469 197.957031 281.953125 198.289062 C 282.175781 198.617188 282.359375 198.96875 282.511719 199.335938 C 282.664062 199.703125 282.78125 200.082031 282.859375 200.472656 C 282.9375 200.859375 282.972656 201.253906 282.972656 201.652344 Z M 282.972656 201.652344 " fill-opacity="1" fill-rule="nonzero"/><path fill="#fd7b96" d="M 306.824219 188.289062 C 303.570312 189.066406 301.566406 192.332031 302.339844 195.582031 C 303.117188 198.832031 306.386719 200.835938 309.636719 200.0625 C 312.890625 199.285156 314.894531 196.019531 314.121094 192.769531 C 313.34375 189.519531 310.074219 187.511719 306.824219 188.289062 Z M 306.824219 188.289062 " fill-opacity="1" fill-rule="nonzero"/><path fill="#fd7b96" d="M 338.128906 180.808594 C 334.875 181.589844 332.871094 184.855469 333.644531 188.105469 C 334.421875 191.351562 337.6875 193.355469 340.941406 192.585938 C 344.195312 191.804688 346.199219 188.542969 345.425781 185.292969 C 344.648438 182.042969 341.378906 180.039062 338.128906 180.808594 Z M 338.128906 180.808594 " fill-opacity="1" fill-rule="nonzero"/><path fill="#fd7b96" d="M 364.945312 180.632812 C 365.429688 182.644531 366.863281 184.179688 368.660156 184.867188 C 368 181.828125 367.121094 178.6875 366.058594 175.511719 C 364.96875 176.90625 364.5 178.769531 364.945312 180.632812 Z M 364.945312 180.632812 " fill-opacity="1" fill-rule="nonzero"/><path fill="#fd7b96" d="M 287.019531 243.871094 C 283.769531 244.648438 281.765625 247.914062 282.535156 251.164062 C 283.316406 254.414062 286.582031 256.417969 289.835938 255.644531 C 293.085938 254.867188 295.09375 251.601562 294.320312 248.351562 C 293.546875 245.101562 290.273438 243.089844 287.019531 243.871094 Z M 287.019531 243.871094 " fill-opacity="1" fill-rule="nonzero"/><path fill="#fd7b96" d="M 318.324219 236.390625 C 315.074219 237.167969 313.066406 240.433594 313.839844 243.683594 C 314.621094 246.933594 317.886719 248.9375 321.140625 248.164062 C 324.390625 247.386719 326.394531 244.121094 325.625 240.871094 C 324.851562 237.621094 321.585938 235.613281 318.324219 236.390625 Z M 318.324219 236.390625 " fill-opacity="1" fill-rule="nonzero"/><path fill="#fd7b96" d="M 349.636719 228.910156 C 346.382812 229.691406 344.378906 232.957031 345.152344 236.207031 C 345.929688 239.453125 349.199219 241.457031 352.449219 240.6875 C 355.703125 239.90625 357.707031 236.644531 356.933594 233.394531 C 356.15625 230.144531 352.886719 228.140625 349.636719 228.910156 Z M 349.636719 228.910156 " fill-opacity="1" fill-rule="nonzero"/><path fill="#fff156" d="M 369.320312 188.289062 C 365.199219 163.8125 346.390625 132.425781 323.433594 117.007812 C 332.304688 132.335938 343.800781 157.585938 345.425781 185.292969 C 347.585938 222.152344 305.136719 250.398438 269.429688 245.664062 C 284.207031 259.28125 304.574219 265.386719 324.144531 260.710938 C 354.601562 253.441406 375 222.027344 369.320312 188.289062 Z M 369.320312 188.289062 " fill-opacity="1" fill-rule="nonzero"/><path fill="#fff156" d="M 252.464844 150.035156 C 254.886719 184.164062 231.570312 213.472656 200.558594 217.804688 C 169.542969 222.128906 139.085938 200.324219 132.0625 166.839844 C 124.449219 130.578125 141.691406 68.074219 178.914062 62.882812 C 216.128906 57.6875 249.84375 113.078125 252.464844 150.035156 Z M 252.464844 150.035156 " fill-opacity="1" fill-rule="nonzero"/><path fill="#ffffff" d="M 184.414062 102.308594 C 200.855469 100.019531 215.585938 95.03125 227.003906 88.515625 C 213.808594 71.84375 196.753906 60.390625 178.90625 62.882812 C 161.046875 65.375 147.792969 81.058594 139.671875 100.707031 C 152.441406 103.847656 167.984375 104.601562 184.414062 102.308594 Z M 184.414062 102.308594 " fill-opacity="1" fill-rule="nonzero"/><path fill="#fff156" d="M 178.90625 62.882812 C 165.296875 64.78125 154.359375 74.351562 146.332031 87.5 C 157.1875 89.117188 169.484375 89.199219 182.335938 87.402344 C 195.1875 85.609375 206.988281 82.164062 216.988281 77.640625 C 205.65625 67.191406 192.515625 60.984375 178.90625 62.882812 Z M 178.90625 62.882812 " fill-opacity="1" fill-rule="nonzero"/><path fill="#ffffff" d="M 197.042969 192.667969 C 177.144531 195.441406 158.285156 194.707031 142.492188 191.199219 C 155.652344 210.214844 177.949219 220.957031 200.558594 217.804688 C 223.160156 214.652344 241.660156 198.214844 249.101562 176.320312 C 234.882812 184.015625 216.945312 189.882812 197.042969 192.667969 Z M 197.042969 192.667969 " fill-opacity="1" fill-rule="nonzero"/><path fill="#ffc2cf" d="M 245.5 153.601562 C 240.992188 158.996094 236.21875 164.277344 231.183594 169.4375 C 224.242188 167.476562 217.476562 165.273438 210.90625 162.847656 C 205.800781 167.640625 200.429688 172.300781 194.816406 176.804688 C 188.179688 174.007812 181.742188 170.992188 175.511719 167.789062 C 169.855469 171.921875 163.953125 175.890625 157.820312 179.675781 C 151.566406 176.089844 145.53125 172.316406 139.714844 168.359375 C 137.609375 169.523438 135.46875 170.667969 133.308594 171.789062 C 133.796875 173.480469 134.347656 175.140625 134.957031 176.757812 C 136.464844 175.980469 137.964844 175.1875 139.449219 174.378906 C 145.382812 178.332031 151.542969 182.117188 157.921875 185.691406 C 164.183594 181.910156 170.203125 177.929688 175.988281 173.792969 C 182.34375 176.996094 188.898438 179.992188 195.65625 182.769531 C 201.394531 178.25 206.882812 173.570312 212.109375 168.753906 C 218.808594 171.15625 225.691406 173.332031 232.75 175.253906 C 237.90625 170.058594 242.796875 164.738281 247.417969 159.308594 C 249.0625 159.679688 250.726562 160.027344 252.398438 160.367188 C 252.539062 158.640625 252.613281 156.898438 252.621094 155.136719 C 250.230469 154.65625 247.855469 154.152344 245.5 153.601562 Z M 245.5 153.601562 " fill-opacity="1" fill-rule="nonzero"/><path fill="#ffc2cf" d="M 142.136719 115.191406 C 146.851562 119.09375 151.796875 122.855469 156.964844 126.453125 C 162.011719 122.691406 166.824219 118.765625 171.398438 114.722656 C 176.542969 118.019531 181.898438 121.148438 187.460938 124.09375 C 191.996094 119.738281 196.289062 115.265625 200.335938 110.6875 C 205.84375 113.328125 211.546875 115.777344 217.433594 118.019531 C 221.414062 113.144531 225.140625 108.171875 228.609375 103.125 C 231.882812 104.21875 235.210938 105.234375 238.585938 106.191406 C 237.480469 104.144531 236.316406 102.125 235.105469 100.144531 C 232.261719 99.28125 229.453125 98.378906 226.691406 97.414062 C 223.34375 102.421875 219.734375 107.355469 215.875 112.199219 C 210.105469 109.929688 204.523438 107.453125 199.136719 104.78125 C 195.21875 109.335938 191.046875 113.789062 186.628906 118.121094 C 181.191406 115.160156 175.957031 112.015625 170.9375 108.714844 C 166.492188 112.75 161.796875 116.667969 156.875 120.429688 C 151.832031 116.824219 147.015625 113.070312 142.417969 109.167969 C 140.027344 110.84375 137.585938 112.484375 135.089844 114.085938 C 134.46875 116.324219 133.902344 118.582031 133.398438 120.859375 C 136.375 119.019531 139.292969 117.132812 142.136719 115.191406 Z M 142.136719 115.191406 " fill-opacity="1" fill-rule="nonzero"/><path fill="#65cea2" d="M 140.792969 144.789062 C 146.117188 148.71875 151.671875 152.488281 157.441406 156.082031 C 163.089844 152.304688 168.511719 148.355469 173.6875 144.261719 C 179.433594 147.511719 185.394531 150.574219 191.550781 153.4375 C 196.6875 149.003906 201.574219 144.425781 206.214844 139.726562 C 212.316406 142.25 218.613281 144.566406 225.082031 146.644531 C 229.648438 141.605469 233.953125 136.464844 238 131.226562 C 241.847656 132.277344 245.761719 133.234375 249.726562 134.109375 C 249.25 132.285156 248.714844 130.445312 248.128906 128.597656 C 244.050781 127.664062 240.035156 126.640625 236.085938 125.511719 C 232.15625 130.710938 227.96875 135.816406 223.523438 140.824219 C 217.167969 138.710938 210.996094 136.367188 205.011719 133.820312 C 200.496094 138.496094 195.730469 143.050781 190.710938 147.472656 C 184.675781 144.59375 178.839844 141.515625 173.21875 138.257812 C 168.160156 142.347656 162.867188 146.285156 157.335938 150.054688 C 151.683594 146.464844 146.257812 142.695312 141.054688 138.769531 C 137.570312 140.929688 133.992188 143.015625 130.332031 145.023438 C 130.273438 146.960938 130.265625 148.882812 130.308594 150.769531 C 133.886719 148.839844 137.386719 146.851562 140.792969 144.789062 Z M 140.792969 144.789062 " fill-opacity="1" fill-rule="nonzero"/><path fill="#ffffff" d="M 219.699219 126.503906 C 213.640625 124.308594 207.757812 121.90625 202.070312 119.292969 C 197.855469 123.910156 193.382812 128.414062 188.667969 132.789062 C 182.929688 129.875 177.398438 126.757812 172.074219 123.480469 C 167.324219 127.542969 162.332031 131.46875 157.105469 135.238281 C 151.757812 131.640625 146.636719 127.878906 141.734375 123.96875 C 138.46875 126.121094 135.105469 128.203125 131.660156 130.222656 C 131.355469 132.277344 131.101562 134.332031 130.902344 136.375 C 134.511719 134.320312 138.039062 132.1875 141.46875 129.984375 C 146.488281 133.902344 151.738281 137.664062 157.210938 141.261719 C 162.554688 137.496094 167.671875 133.5625 172.550781 129.488281 C 177.992188 132.761719 183.648438 135.863281 189.507812 138.761719 C 194.347656 134.371094 198.9375 129.84375 203.273438 125.207031 C 209.082031 127.789062 215.082031 130.171875 221.257812 132.332031 C 225.535156 127.375 229.550781 122.3125 233.308594 117.171875 C 237.214844 118.351562 241.195312 119.425781 245.234375 120.421875 C 244.476562 118.515625 243.675781 116.609375 242.8125 114.714844 C 238.945312 113.714844 235.128906 112.636719 231.394531 111.457031 C 227.746094 116.5625 223.847656 121.585938 219.699219 126.503906 Z M 219.699219 126.503906 " fill-opacity="1" fill-rule="nonzero"/><path fill="#ffffff" d="M 157.675781 170.890625 C 163.632812 167.113281 169.355469 163.152344 174.835938 159.035156 C 180.886719 162.261719 187.148438 165.289062 193.605469 168.109375 C 199.042969 163.625 204.230469 159.003906 209.164062 154.242188 C 215.5625 156.703125 222.148438 158.945312 228.921875 160.949219 C 233.785156 155.835938 238.378906 150.597656 242.714844 145.269531 C 245.847656 146.050781 249.027344 146.761719 252.226562 147.429688 C 252.042969 145.671875 251.78125 143.875 251.46875 142.058594 C 247.867188 141.292969 244.3125 140.460938 240.800781 139.558594 C 236.582031 144.855469 232.105469 150.046875 227.359375 155.128906 C 220.714844 153.089844 214.242188 150.820312 207.96875 148.335938 C 203.15625 153.066406 198.089844 157.675781 192.777344 162.136719 C 186.441406 159.300781 180.300781 156.25 174.375 153.015625 C 169.023438 157.125 163.425781 161.082031 157.589844 164.859375 C 151.632812 161.265625 145.902344 157.496094 140.398438 153.558594 C 137.28125 155.382812 134.089844 157.15625 130.835938 158.878906 C 131.027344 160.71875 131.273438 162.511719 131.578125 164.257812 C 134.472656 162.742188 137.324219 161.183594 140.125 159.582031 C 145.746094 163.53125 151.605469 167.300781 157.675781 170.890625 Z M 157.675781 170.890625 " fill-opacity="1" fill-rule="nonzero"/><path fill="#ffffff" d="M 123.804688 221.8125 C 110.1875 253.203125 75.964844 268.449219 46.449219 257.980469 C 16.945312 247.511719 0 214.117188 9.238281 181.171875 C 19.238281 145.492188 63.410156 98.007812 98.820312 110.570312 C 134.230469 123.128906 138.558594 187.820312 123.804688 221.8125 Z M 123.804688 221.8125 " fill-opacity="1" fill-rule="nonzero"/><path fill="#fff156" d="M 69.347656 117.097656 C 82.304688 130 97.230469 140.738281 111.054688 152.703125 C 118.390625 159.046875 125.476562 165.859375 131.660156 173.324219 C 131.394531 166.632812 130.605469 159.976562 129.261719 153.609375 C 127.027344 151.496094 124.769531 149.410156 122.503906 147.363281 C 113.855469 139.550781 105.003906 131.964844 95.960938 124.613281 C 91.058594 120.628906 86.0625 116.675781 82.074219 111.777344 C 81.355469 110.894531 80.695312 109.976562 80.050781 109.039062 C 75.320312 109.796875 70.566406 111.324219 65.882812 113.476562 C 67.003906 114.714844 68.167969 115.917969 69.347656 117.097656 Z M 69.347656 117.097656 " fill-opacity="1" fill-rule="nonzero"/><path fill="#fd7b96" d="M 71.414062 248.671875 C 61.441406 238.402344 48.308594 231.835938 35.082031 226.351562 C 25.328125 222.308594 14.523438 217.910156 7.65625 210.414062 C 8.359375 214.578125 9.460938 218.621094 10.921875 222.484375 C 21.050781 232.398438 34.167969 238.988281 47.03125 245.199219 C 54.507812 248.8125 62.304688 252.617188 67.324219 259.226562 C 67.796875 259.859375 68.234375 260.511719 68.652344 261.171875 C 72.34375 260.980469 76.011719 260.4375 79.617188 259.570312 C 77.355469 255.609375 74.5625 251.921875 71.414062 248.671875 Z M 71.414062 248.671875 " fill-opacity="1" fill-rule="nonzero"/><path fill="#fd7b96" d="M 42.613281 173.6875 C 56.570312 182.796875 71.125 191.144531 83.820312 201.949219 C 96.117188 212.410156 106.742188 225.566406 111.191406 241.042969 C 114.605469 237.40625 117.648438 233.320312 120.253906 228.824219 C 119.949219 227.621094 119.609375 226.425781 119.214844 225.238281 C 115.371094 213.695312 107.277344 204.078125 98.6875 195.464844 C 82.945312 179.695312 64.878906 166.253906 45.253906 155.703125 C 39.367188 152.535156 33.070312 149.386719 29.320312 143.875 C 26.34375 147.628906 23.582031 151.523438 21.101562 155.472656 C 26.773438 162.734375 34.765625 168.566406 42.613281 173.6875 Z M 42.613281 173.6875 " fill-opacity="1" fill-rule="nonzero"/><path fill="#65cea2" d="M 52.199219 140.320312 C 57.417969 145.8125 63.757812 150.09375 69.9375 154.46875 C 79.203125 161.035156 88.230469 167.9375 96.992188 175.15625 C 109.472656 185.433594 122.03125 197.421875 127.167969 212.417969 C 128.773438 206.964844 129.980469 201.035156 130.753906 194.878906 C 123.804688 183.621094 113.996094 173.925781 103.816406 165.304688 C 88.929688 152.703125 72.640625 141.484375 60.164062 126.503906 C 58.332031 124.300781 56.585938 122.007812 55.0625 119.589844 C 51.21875 122.171875 47.46875 125.117188 43.867188 128.347656 C 46.042969 132.714844 48.828125 136.765625 52.199219 140.320312 Z M 52.199219 140.320312 " fill-opacity="1" fill-rule="nonzero"/><path fill="#65cea2" d="M 98.699219 247.914062 C 95.054688 234.996094 86.257812 223.992188 75.847656 215.511719 C 65.4375 207.03125 53.386719 200.820312 41.378906 194.796875 C 33.523438 190.855469 25.421875 186.804688 19.675781 180.171875 C 16.957031 177.035156 14.933594 173.523438 13.410156 169.769531 C 11.6875 173.644531 10.277344 177.472656 9.238281 181.171875 C 8.597656 183.464844 8.09375 185.757812 7.699219 188.042969 C 13.328125 195.605469 21.347656 201.800781 29.417969 206.898438 C 39.707031 213.398438 50.59375 218.960938 60.550781 225.953125 C 70.515625 232.941406 79.691406 241.585938 84.988281 252.535156 C 85.730469 254.078125 86.382812 255.675781 86.945312 257.308594 C 91.296875 255.667969 95.492188 253.53125 99.449219 250.933594 C 99.21875 249.925781 98.984375 248.914062 98.699219 247.914062 Z M 98.699219 247.914062 " fill-opacity="1" fill-rule="nonzero"/><path fill="#fd7b96" d="M 82.121094 108.765625 C 94.988281 119.191406 107.855469 129.621094 120.722656 140.046875 C 122.882812 141.796875 125.050781 143.570312 127.167969 145.394531 C 125.839844 141.003906 124.207031 136.832031 122.253906 132.984375 C 112.734375 125.695312 103.429688 118.21875 95.34375 109.535156 C 91.015625 108.484375 86.582031 108.269531 82.121094 108.765625 Z M 82.121094 108.765625 " fill-opacity="1" fill-rule="nonzero"/><path fill="#fddfdf" d="M 61.324219 261.089844 C 53.097656 252.054688 42.945312 244.761719 31.734375 239.878906 C 26.535156 237.613281 21.066406 235.8125 16.121094 233.105469 C 18.152344 236.429688 20.5 239.542969 23.113281 242.40625 C 28.097656 244.574219 33.226562 246.464844 38.15625 248.773438 C 44.15625 251.578125 50.039062 255.199219 54.328125 260.148438 C 56.652344 260.601562 58.984375 260.921875 61.324219 261.089844 Z M 61.324219 261.089844 " fill-opacity="1" fill-rule="nonzero"/><path fill="#ffc2cf" d="M 97.667969 219.683594 C 91.9375 213.042969 86.121094 206.527344 79.0625 201.191406 C 72.097656 195.925781 64.523438 191.539062 57.023438 187.085938 C 51.699219 183.917969 46.398438 180.707031 41.128906 177.449219 C 33.433594 172.691406 23.492188 167.121094 18.910156 159.054688 C 17.292969 161.839844 15.808594 164.628906 14.484375 167.402344 C 15.199219 168.277344 15.933594 169.140625 16.667969 169.984375 C 24.308594 178.792969 32.714844 187.28125 43.152344 192.464844 C 60.519531 201.089844 77.117188 212.128906 91.128906 225.65625 C 97.335938 231.640625 100.347656 240.789062 102.085938 249.085938 C 104.902344 247.03125 107.582031 244.738281 110.074219 242.207031 C 107.550781 233.957031 103.3125 226.226562 97.667969 219.683594 Z M 97.667969 219.683594 " fill-opacity="1" fill-rule="nonzero"/><path fill="#fff156" d="M 20.984375 216.898438 C 35.683594 224.148438 50.765625 230.863281 64.1875 240.277344 C 70.410156 244.640625 76.425781 249.804688 79.589844 256.707031 C 79.976562 257.550781 80.308594 258.433594 80.589844 259.332031 C 82.222656 258.910156 83.84375 258.417969 85.445312 257.863281 C 78.734375 240.300781 62.992188 231.449219 47.492188 222.441406 C 39.640625 217.886719 31.933594 213.101562 24.367188 208.085938 C 17.410156 203.46875 12.066406 198.410156 7.1875 191.644531 C 6.496094 197.5625 6.601562 203.410156 7.441406 209.058594 C 11.589844 212.152344 16.320312 214.597656 20.984375 216.898438 Z M 20.984375 216.898438 " fill-opacity="1" fill-rule="nonzero"/><path fill="#fff156" d="M 51.617188 155.464844 C 59.460938 160.199219 66.015625 166.222656 73.394531 171.714844 C 82.953125 178.8125 92.953125 185.433594 101.558594 193.714844 C 110.445312 202.269531 116.847656 212.648438 121.546875 224.007812 C 121.742188 224.46875 121.917969 224.941406 122.105469 225.402344 C 122.699219 224.222656 123.269531 223.035156 123.804688 221.804688 C 125.15625 218.6875 126.351562 215.304688 127.367188 211.734375 C 122.683594 201.6875 114.425781 194.007812 106.5625 186.382812 C 97.140625 177.234375 86.851562 168.976562 75.882812 161.75 C 72.164062 159.300781 68.355469 156.964844 64.769531 154.316406 C 56.109375 147.933594 48.023438 139.496094 41.617188 130.402344 C 37.800781 134.007812 34.167969 137.917969 30.804688 142.011719 C 37.511719 146.84375 44.550781 151.199219 51.617188 155.464844 Z M 51.617188 155.464844 " fill-opacity="1" fill-rule="nonzero"/><path fill="#ffc2cf" d="M 57.074219 118.285156 C 58.308594 119.257812 59.546875 120.222656 60.773438 121.222656 C 64.292969 124.101562 66.683594 128.621094 69.707031 132.039062 C 76.65625 139.898438 84.71875 146.664062 92.746094 153.386719 C 104.929688 163.605469 119.765625 173.300781 129.34375 185.914062 C 130.035156 186.820312 130.710938 187.726562 131.386719 188.636719 C 131.71875 184.199219 131.839844 179.691406 131.726562 175.179688 C 129.8125 173.582031 127.894531 171.988281 125.980469 170.394531 C 114.796875 161.066406 103.609375 151.734375 92.902344 141.863281 C 84.414062 134.035156 76.105469 126.015625 67.472656 118.277344 C 66.179688 117.121094 64.835938 115.902344 63.601562 114.589844 C 61.398438 115.6875 59.222656 116.925781 57.074219 118.285156 Z M 57.074219 118.285156 " fill-opacity="1" fill-rule="nonzero"/><path fill="#fd7b96" d="M 308.308594 276.242188 C 290.613281 306.113281 254.238281 317.125 225.859375 302.847656 C 197.484375 288.574219 184.675781 252.808594 198.144531 220.824219 C 212.734375 186.183594 263.222656 143.980469 297.269531 161.109375 C 331.320312 178.234375 327.464844 243.890625 308.308594 276.242188 Z M 308.308594 276.242188 " fill-opacity="1" fill-rule="nonzero"/><path fill="#65cea2" d="M 224.027344 184.90625 C 223.179688 185.722656 222.347656 186.546875 221.523438 187.375 C 234.867188 216.128906 260.203125 253.457031 307.046875 278.261719 C 307.46875 277.59375 307.898438 276.925781 308.308594 276.242188 C 308.464844 275.972656 308.621094 275.691406 308.785156 275.417969 C 262.082031 250.746094 237.074219 213.40625 224.070312 185.003906 C 224.058594 184.964844 224.042969 184.933594 224.027344 184.90625 Z M 224.027344 184.90625 " fill-opacity="1" fill-rule="nonzero"/><path fill="#ffffff" d="M 228.800781 180.535156 C 242.851562 208.789062 268.183594 243.675781 312.867188 267.257812 C 313.742188 265.261719 314.566406 263.191406 315.339844 261.054688 C 271.816406 237.875 247.402344 203.574219 234.050781 176.203125 C 232.269531 177.589844 230.515625 179.035156 228.800781 180.535156 Z M 228.800781 180.535156 " fill-opacity="1" fill-rule="nonzero"/><path fill="#ffffff" d="M 208.269531 203.0625 C 207.5 204.136719 206.757812 205.222656 206.042969 206.304688 C 206.773438 208.011719 207.515625 209.722656 208.308594 211.460938 C 220.746094 238.683594 244.007812 273.964844 286.339844 298.96875 C 287.378906 298.308594 288.402344 297.632812 289.410156 296.914062 C 246.984375 272.316406 223.738281 237.214844 211.375 210.199219 C 210.277344 207.789062 209.242188 205.414062 208.269531 203.0625 Z M 208.269531 203.0625 " fill-opacity="1" fill-rule="nonzero"/><path fill="#c1e6d9" d="M 193.890625 247.421875 C 193.519531 246.613281 193.160156 245.804688 192.804688 245.003906 C 192.589844 251.675781 193.382812 258.234375 195.085938 264.464844 C 201.234375 275.550781 209.101562 287.335938 219.121094 298.847656 C 221.257812 300.320312 223.492188 301.660156 225.855469 302.847656 C 229.078125 304.472656 232.410156 305.75 235.804688 306.730469 C 215.289062 287.074219 202.144531 265.429688 193.890625 247.421875 Z M 193.890625 247.421875 " fill-opacity="1" fill-rule="nonzero"/><path fill="#f9e17e" d="M 270.929688 158.046875 C 283.234375 175.273438 299.910156 192.824219 322.378906 207.507812 C 322.113281 204.507812 321.71875 201.5625 321.191406 198.691406 C 303.164062 186.085938 289.234375 171.585938 278.511719 157.1875 C 276.015625 157.273438 273.484375 157.570312 270.929688 158.046875 Z M 270.929688 158.046875 " fill-opacity="1" fill-rule="nonzero"/><path fill="#f9e17e" d="M 256.847656 308.867188 C 226.757812 285.910156 208.953125 257.863281 198.679688 235.398438 C 197.566406 232.957031 196.519531 230.542969 195.539062 228.167969 C 195.019531 229.9375 194.566406 231.707031 194.195312 233.488281 C 194.652344 234.542969 195.121094 235.597656 195.613281 236.664062 C 205.703125 258.746094 222.90625 286.132812 251.632812 309.035156 C 253.378906 309.042969 255.117188 309 256.847656 308.867188 Z M 256.847656 308.867188 " fill-opacity="1" fill-rule="nonzero"/><path fill="#65cea2" d="M 269.121094 306.667969 C 271.792969 305.921875 274.429688 304.992188 277.003906 303.886719 C 239.335938 279.847656 218.160156 247.46875 206.59375 222.21875 C 205.050781 218.859375 203.644531 215.550781 202.359375 212.3125 C 200.867188 214.949219 199.554688 217.574219 198.441406 220.15625 C 199.09375 221.671875 199.761719 223.199219 200.46875 224.742188 C 211.976562 249.96875 232.714844 282.066406 269.121094 306.667969 Z M 269.121094 306.667969 " fill-opacity="1" fill-rule="nonzero"/><path fill="#f9e17e" d="M 239.269531 172.335938 C 253.4375 198.953125 277.613281 230.269531 318.140625 252.210938 C 318.445312 251.109375 318.734375 250.003906 319.007812 248.886719 C 279.449219 227.25 255.851562 196.515625 242.03125 170.46875 C 241.105469 171.066406 240.183594 171.691406 239.269531 172.335938 Z M 239.269531 172.335938 " fill-opacity="1" fill-rule="nonzero"/><path fill="#f9e17e" d="M 296.890625 290.679688 C 298.523438 289.105469 300.082031 287.4375 301.574219 285.671875 C 256.378906 261.238281 232.015625 224.808594 219.28125 197.023438 C 218.519531 195.351562 217.796875 193.707031 217.101562 192.074219 C 215.445312 193.921875 213.847656 195.796875 212.324219 197.699219 C 212.601562 198.3125 212.867188 198.929688 213.148438 199.542969 C 226.179688 228.058594 250.988281 265.347656 296.890625 290.679688 Z M 296.890625 290.679688 " fill-opacity="1" fill-rule="nonzero"/><path fill="#65cea2" d="M 289.417969 158.246094 C 297.28125 167.394531 306.503906 176.386719 317.300781 184.742188 C 316.363281 182.359375 315.304688 180.082031 314.113281 177.929688 C 307.328125 172.285156 301.238281 166.386719 295.761719 160.390625 C 293.703125 159.472656 291.578125 158.765625 289.417969 158.246094 Z M 289.417969 158.246094 " fill-opacity="1" fill-rule="nonzero"/><path fill="#65cea2" d="M 247.742188 166.964844 C 262.042969 191.664062 284.90625 219.289062 320.945312 239.535156 C 321.347656 237.199219 321.6875 234.839844 321.964844 232.464844 C 288.558594 213.09375 267.152344 187.152344 253.628906 163.886719 C 251.648438 164.828125 249.6875 165.859375 247.742188 166.964844 Z M 247.742188 166.964844 " fill-opacity="1" fill-rule="nonzero"/><path fill="#ffffff" d="M 260.136719 161.105469 C 273.65625 182.265625 293.578125 204.761719 322.734375 222.382812 C 322.789062 221.089844 322.816406 219.800781 322.824219 218.515625 C 295.367188 201.539062 276.382812 180.179688 263.359375 159.984375 C 262.28125 160.324219 261.210938 160.695312 260.136719 161.105469 Z M 260.136719 161.105469 " fill-opacity="1" fill-rule="nonzero"/><path fill="#65cea2" d="M 202.992188 235.976562 C 208.359375 269.765625 187.675781 300.984375 157.15625 307.984375 C 126.632812 314.980469 94.402344 295.890625 84.496094 263.136719 C 73.765625 227.671875 85.535156 163.914062 122.15625 155.515625 C 158.785156 147.125 197.179688 199.382812 202.992188 235.976562 Z M 202.992188 235.976562 " fill-opacity="1" fill-rule="nonzero"/><path fill="#ffffff" d="M 108.054688 166.023438 C 104.796875 166.773438 102.761719 170.015625 103.503906 173.273438 C 104.253906 176.527344 107.5 178.5625 110.757812 177.820312 C 114.019531 177.070312 116.054688 173.828125 115.308594 170.570312 C 114.566406 167.304688 111.316406 165.273438 108.054688 166.023438 Z M 108.054688 166.023438 " fill-opacity="1" fill-rule="nonzero"/><path fill="#ffffff" d="M 139.425781 158.824219 C 136.167969 159.574219 134.132812 162.816406 134.875 166.074219 C 135.625 169.332031 138.871094 171.363281 142.128906 170.621094 C 145.390625 169.875 147.421875 166.632812 146.679688 163.375 C 145.9375 160.117188 142.6875 158.082031 139.425781 158.824219 Z M 139.425781 158.824219 " fill-opacity="1" fill-rule="nonzero"/><path fill="#ffffff" d="M 87.75 221.417969 C 84.488281 222.167969 82.453125 225.410156 83.195312 228.667969 C 83.945312 231.925781 87.191406 233.957031 90.453125 233.214844 C 93.710938 232.464844 95.746094 229.222656 95.003906 225.964844 C 94.261719 222.703125 91.007812 220.667969 87.75 221.417969 Z M 87.75 221.417969 " fill-opacity="1" fill-rule="nonzero"/><path fill="#ffffff" d="M 119.121094 214.222656 C 115.859375 214.96875 113.824219 218.210938 114.566406 221.46875 C 115.316406 224.726562 118.5625 226.761719 121.820312 226.019531 C 125.082031 225.269531 127.117188 222.027344 126.375 218.769531 C 125.632812 215.511719 122.378906 213.480469 119.121094 214.222656 Z M 119.121094 214.222656 " fill-opacity="1" fill-rule="nonzero"/><path fill="#ffffff" d="M 150.488281 207.03125 C 147.230469 207.78125 145.195312 211.023438 145.9375 214.28125 C 146.6875 217.539062 149.933594 219.570312 153.191406 218.828125 C 156.453125 218.078125 158.488281 214.835938 157.746094 211.578125 C 157 208.320312 153.757812 206.289062 150.488281 207.03125 Z M 150.488281 207.03125 " fill-opacity="1" fill-rule="nonzero"/><path fill="#ffffff" d="M 181.867188 199.839844 C 178.609375 200.589844 176.574219 203.832031 177.316406 207.089844 C 178.058594 210.347656 181.3125 212.378906 184.570312 211.640625 C 187.832031 210.890625 189.863281 207.648438 189.121094 204.390625 C 188.371094 201.132812 185.128906 199.09375 181.867188 199.839844 Z M 181.867188 199.839844 " fill-opacity="1" fill-rule="nonzero"/><path fill="#ffffff" d="M 98.054688 194.386719 C 94.796875 195.136719 92.761719 198.378906 93.503906 201.636719 C 94.246094 204.894531 97.496094 206.925781 100.757812 206.183594 C 104.015625 205.4375 106.050781 202.195312 105.308594 198.9375 C 104.566406 195.679688 101.3125 193.644531 98.054688 194.386719 Z M 98.054688 194.386719 " fill-opacity="1" fill-rule="nonzero"/><path fill="#ffffff" d="M 129.433594 187.199219 C 126.171875 187.949219 124.140625 191.191406 124.882812 194.449219 C 125.632812 197.703125 128.875 199.738281 132.136719 198.996094 C 135.394531 198.246094 137.429688 195.003906 136.6875 191.746094 C 135.9375 188.488281 132.691406 186.457031 129.433594 187.199219 Z M 129.433594 187.199219 " fill-opacity="1" fill-rule="nonzero"/><path fill="#ffffff" d="M 160.804688 180.007812 C 157.542969 180.757812 155.507812 184 156.25 187.257812 C 157 190.515625 160.246094 192.546875 163.507812 191.804688 C 166.765625 191.058594 168.800781 187.8125 168.058594 184.558594 C 167.308594 181.300781 164.0625 179.257812 160.804688 180.007812 Z M 160.804688 180.007812 " fill-opacity="1" fill-rule="nonzero"/><path fill="#ffffff" d="M 98.8125 269.617188 C 95.550781 270.367188 93.519531 273.609375 94.261719 276.863281 C 95.011719 280.121094 98.253906 282.15625 101.515625 281.414062 C 104.773438 280.664062 106.808594 277.421875 106.066406 274.164062 C 105.324219 270.90625 102.070312 268.875 98.8125 269.617188 Z M 98.8125 269.617188 " fill-opacity="1" fill-rule="nonzero"/><path fill="#ffffff" d="M 136.964844 265.648438 C 137.140625 266.003906 137.28125 266.375 137.382812 266.757812 C 137.484375 267.140625 137.550781 267.53125 137.578125 267.929688 C 137.601562 268.324219 137.589844 268.722656 137.535156 269.113281 C 137.484375 269.507812 137.394531 269.894531 137.265625 270.269531 C 137.140625 270.648438 136.976562 271.007812 136.777344 271.351562 C 136.578125 271.695312 136.347656 272.015625 136.085938 272.316406 C 135.820312 272.613281 135.53125 272.886719 135.21875 273.128906 C 134.902344 273.367188 134.566406 273.578125 134.207031 273.753906 C 133.851562 273.929688 133.480469 274.070312 133.097656 274.171875 C 132.710938 274.273438 132.320312 274.339844 131.925781 274.363281 C 131.527344 274.390625 131.132812 274.375 130.738281 274.324219 C 130.34375 274.273438 129.957031 274.183594 129.582031 274.054688 C 129.203125 273.925781 128.84375 273.761719 128.5 273.566406 C 128.15625 273.367188 127.832031 273.136719 127.535156 272.875 C 127.234375 272.609375 126.964844 272.320312 126.722656 272.007812 C 126.480469 271.691406 126.269531 271.355469 126.09375 271 C 125.917969 270.640625 125.78125 270.269531 125.675781 269.886719 C 125.574219 269.503906 125.511719 269.113281 125.484375 268.714844 C 125.457031 268.320312 125.472656 267.925781 125.523438 267.53125 C 125.574219 267.136719 125.664062 266.75 125.792969 266.375 C 125.921875 265.996094 126.085938 265.636719 126.285156 265.292969 C 126.484375 264.949219 126.714844 264.628906 126.976562 264.328125 C 127.238281 264.03125 127.527344 263.761719 127.84375 263.519531 C 128.160156 263.277344 128.496094 263.066406 128.851562 262.890625 C 129.210938 262.714844 129.578125 262.578125 129.964844 262.472656 C 130.347656 262.371094 130.738281 262.308594 131.136719 262.28125 C 131.535156 262.253906 131.929688 262.269531 132.324219 262.320312 C 132.71875 262.371094 133.101562 262.460938 133.480469 262.589844 C 133.855469 262.71875 134.21875 262.882812 134.5625 263.082031 C 134.90625 263.277344 135.226562 263.507812 135.527344 263.773438 C 135.824219 264.035156 136.097656 264.324219 136.339844 264.636719 C 136.582031 264.953125 136.789062 265.289062 136.964844 265.648438 Z M 136.964844 265.648438 " fill-opacity="1" fill-rule="nonzero"/><path fill="#ffffff" d="M 161.5625 255.238281 C 158.300781 255.984375 156.265625 259.226562 157.007812 262.484375 C 157.757812 265.742188 161.003906 267.777344 164.261719 267.035156 C 167.523438 266.285156 169.558594 263.042969 168.816406 259.785156 C 168.066406 256.527344 164.820312 254.488281 161.5625 255.238281 Z M 161.5625 255.238281 " fill-opacity="1" fill-rule="nonzero"/><path fill="#ffffff" d="M 192.929688 248.046875 C 189.671875 248.796875 187.636719 252.039062 188.378906 255.296875 C 189.121094 258.554688 192.375 260.585938 195.632812 259.84375 C 198.894531 259.09375 200.929688 255.851562 200.1875 252.59375 C 199.441406 249.332031 196.191406 247.296875 192.929688 248.046875 Z M 192.929688 248.046875 " fill-opacity="1" fill-rule="nonzero"/><path fill="#ffffff" d="M 85.007812 254.332031 C 84.578125 252.46875 83.339844 251.007812 81.742188 250.234375 C 82.203125 253.550781 82.8125 256.75 83.570312 259.769531 C 84.867188 258.359375 85.46875 256.347656 85.007812 254.332031 Z M 85.007812 254.332031 " fill-opacity="1" fill-rule="nonzero"/><path fill="#ffffff" d="M 109.125 242.59375 C 105.867188 243.34375 103.832031 246.585938 104.574219 249.84375 C 105.324219 253.101562 108.570312 255.132812 111.828125 254.390625 C 115.085938 253.640625 117.121094 250.398438 116.378906 247.140625 C 115.628906 243.882812 112.386719 241.851562 109.125 242.59375 Z M 109.125 242.59375 " fill-opacity="1" fill-rule="nonzero"/><path fill="#ffffff" d="M 140.496094 235.402344 C 137.238281 236.152344 135.203125 239.394531 135.945312 242.652344 C 136.695312 245.910156 139.9375 247.941406 143.199219 247.199219 C 146.457031 246.453125 148.492188 243.210938 147.75 239.953125 C 147 236.695312 143.753906 234.65625 140.496094 235.402344 Z M 140.496094 235.402344 " fill-opacity="1" fill-rule="nonzero"/><path fill="#ffffff" d="M 171.867188 228.214844 C 168.605469 228.964844 166.574219 232.207031 167.316406 235.464844 C 168.058594 238.71875 171.308594 240.753906 174.570312 240.011719 C 177.828125 239.261719 179.863281 236.019531 179.121094 232.761719 C 178.378906 229.503906 175.125 227.464844 171.867188 228.214844 Z M 171.867188 228.214844 " fill-opacity="1" fill-rule="nonzero"/><path fill="#ffffff" d="M 198.691406 228.273438 C 199.152344 230.292969 200.578125 231.835938 202.359375 232.546875 C 201.730469 229.496094 200.882812 226.351562 199.84375 223.167969 C 198.746094 224.554688 198.261719 226.410156 198.691406 228.273438 Z M 198.691406 228.273438 " fill-opacity="1" fill-rule="nonzero"/><path fill="#ffffff" d="M 120.1875 290.800781 C 116.929688 291.546875 114.894531 294.789062 115.636719 298.046875 C 116.386719 301.304688 119.632812 303.339844 122.890625 302.597656 C 126.152344 301.855469 128.183594 298.605469 127.441406 295.347656 C 126.691406 292.089844 123.449219 290.050781 120.1875 290.800781 Z M 120.1875 290.800781 " fill-opacity="1" fill-rule="nonzero"/><path fill="#ffffff" d="M 151.558594 283.609375 C 148.300781 284.359375 146.265625 287.601562 147.007812 290.859375 C 147.757812 294.117188 151.003906 296.148438 154.261719 295.40625 C 157.523438 294.65625 159.554688 291.414062 158.8125 288.15625 C 158.070312 284.898438 154.820312 282.859375 151.558594 283.609375 Z M 151.558594 283.609375 " fill-opacity="1" fill-rule="nonzero"/><path fill="#ffffff" d="M 182.929688 276.417969 C 179.671875 277.167969 177.636719 280.410156 178.378906 283.667969 C 179.128906 286.925781 182.371094 288.957031 185.632812 288.21875 C 188.890625 287.46875 190.925781 284.226562 190.183594 280.96875 C 189.441406 277.703125 186.191406 275.671875 182.929688 276.417969 Z M 182.929688 276.417969 " fill-opacity="1" fill-rule="nonzero"/></svg>