<svg xmlns="http://www.w3.org/2000/svg" xmlns:xlink="http://www.w3.org/1999/xlink" width="500" zoomAndPan="magnify" viewBox="0 0 375 374.999991" height="500" preserveAspectRatio="xMidYMid meet" version="1.0"><defs><clipPath id="26d3808b76"><path d="M 0.375 0.375 L 374.625 0.375 L 374.625 374.625 L 0.375 374.625 Z M 0.375 0.375 " clip-rule="nonzero"/></clipPath><clipPath id="8c6f2885e5"><path d="M 129 54 L 288 54 L 288 374.625 L 129 374.625 Z M 129 54 " clip-rule="nonzero"/></clipPath><clipPath id="609467907b"><path d="M 117 42 L 300 42 L 300 374.625 L 117 374.625 Z M 117 42 " clip-rule="nonzero"/></clipPath></defs><g clip-path="url(#26d3808b76)"><path stroke-linecap="butt" transform="matrix(0.840067, 0, 0, 0.840067, -14.536187, -9.621801)" fill-opacity="1" fill="#4267b2" fill-rule="nonzero" stroke-linejoin="miter" d="M 462.701327 234.598864 C 462.701327 238.235106 462.612978 241.871347 462.431631 245.502939 C 462.254934 249.13453 461.985238 252.761472 461.631844 256.379114 C 461.2738 259.996755 460.827407 263.605097 460.297315 267.204139 C 459.762574 270.798532 459.139484 274.383624 458.432696 277.950116 C 457.721257 281.516609 456.92612 285.064502 456.042634 288.589145 C 455.159148 292.118438 454.187314 295.619832 453.131781 299.102626 C 452.076248 302.58077 450.937016 306.031014 449.709436 309.458009 C 448.486506 312.880354 447.179877 316.274799 445.784899 319.632045 C 444.394572 322.993941 442.920545 326.313988 441.36747 329.601485 C 439.809745 332.888982 438.177622 336.13928 436.461799 339.343078 C 434.750627 342.551526 432.955756 345.713475 431.086486 348.833575 C 429.217216 351.953675 427.273547 355.022625 425.25083 358.049727 C 423.232762 361.072178 421.140296 364.04348 418.973431 366.963633 C 416.806566 369.883786 414.569952 372.75279 412.263589 375.561345 C 409.957226 378.37455 407.581114 381.127305 405.139904 383.819612 C 402.698693 386.516568 400.192383 389.148426 397.620975 391.719835 C 395.049566 394.291243 392.413058 396.797553 389.720752 399.238764 C 387.023795 401.679974 384.27104 404.056086 381.462485 406.362449 C 378.64928 408.668812 375.784926 410.905426 372.864773 413.072291 C 369.94462 415.239156 366.973318 417.331622 363.946217 419.35434 C 360.923765 421.372407 357.854815 423.316076 354.734715 425.185346 C 351.614615 427.054616 348.452666 428.849487 345.244218 430.560659 C 342.03577 432.276482 338.790122 433.913255 335.502625 435.46633 C 332.215128 437.019405 328.890431 438.493432 325.533185 439.883759 C 322.171289 441.278737 318.781494 442.585366 315.359149 443.812946 C 311.932154 445.035876 308.48191 446.175108 304.999116 447.230641 C 301.520972 448.286174 298.019578 449.258008 294.490285 450.141494 C 290.960992 451.02498 287.417749 451.820117 283.851256 452.531556 C 280.284764 453.238344 276.699672 453.861434 273.105279 454.396176 C 269.506237 454.926267 265.897895 455.37266 262.280254 455.730704 C 258.662612 456.088748 255.03567 456.353794 251.404079 456.530491 C 247.772487 456.711838 244.136246 456.800187 240.500004 456.800187 C 236.863763 456.800187 233.227521 456.711838 229.59593 456.530491 C 225.964338 456.353794 222.337397 456.088748 218.719755 455.730704 C 215.102113 455.37266 211.493771 454.926267 207.894729 454.396176 C 204.300337 453.861434 200.715245 453.238344 197.148752 452.531556 C 193.58226 451.820117 190.039017 451.02498 186.509724 450.141494 C 182.98043 449.258008 179.479037 448.286174 176.000893 447.230641 C 172.518099 446.175108 169.067854 445.035876 165.64086 443.812946 C 162.218515 442.585366 158.828719 441.278737 155.466823 439.883759 C 152.109577 438.493432 148.784881 437.019405 145.497384 435.46633 C 142.209887 433.913255 138.964239 432.276482 135.755791 430.560659 C 132.547342 428.849487 129.385393 427.054616 126.265294 425.185346 C 123.145194 423.316076 120.076243 421.372407 117.053792 419.35434 C 114.026691 417.331622 111.055388 415.239156 108.135236 413.072291 C 105.215083 410.905426 102.350729 408.668812 99.537524 406.362449 C 96.728969 404.056086 93.976213 401.679974 91.279257 399.238764 C 88.58695 396.797553 85.950443 394.291243 83.379034 391.719835 C 80.807626 389.148426 78.301316 386.516568 75.860105 383.819612 C 73.418894 381.127305 71.042783 378.37455 68.73642 375.561345 C 66.430057 372.75279 64.193443 369.883786 62.026578 366.963633 C 59.859713 364.04348 57.767246 361.072178 55.749179 358.049727 C 53.726462 355.022625 51.782793 351.953675 49.913523 348.833575 C 48.044253 345.713475 46.249382 342.551526 44.538209 339.343078 C 42.822387 336.13928 41.190263 332.888982 39.632538 329.601485 C 38.079463 326.313988 36.605437 322.993941 35.21511 319.632045 C 33.820132 316.274799 32.513503 312.880354 31.290573 309.458009 C 30.062993 306.031014 28.923761 302.58077 27.868228 299.102626 C 26.812695 295.619832 25.840861 292.118438 24.957375 288.589145 C 24.073889 285.064502 23.278752 281.516609 22.567313 277.950116 C 21.860525 274.383624 21.237435 270.798532 20.702693 267.204139 C 20.172602 263.605097 19.726209 259.996755 19.368165 256.379114 C 19.01477 252.761472 18.745075 249.13453 18.568378 245.502939 C 18.387031 241.871347 18.298682 238.235106 18.298682 234.598864 C 18.298682 230.962623 18.387031 227.331031 18.568378 223.69944 C 18.745075 220.063198 19.01477 216.440907 19.368165 212.818615 C 19.726209 209.200973 20.172602 205.592631 20.702693 201.998239 C 21.237435 198.399197 21.860525 194.818755 22.567313 191.252262 C 23.278752 187.68577 24.073889 184.137877 24.957375 180.608584 C 25.840861 177.08394 26.812695 173.577897 27.868228 170.099753 C 28.923761 166.616959 30.062993 163.166714 31.290573 159.74437 C 32.513503 156.317375 33.820132 152.927579 35.21511 149.565683 C 36.605437 146.208438 38.079463 142.883741 39.632538 139.596244 C 41.190263 136.308747 42.822387 133.063099 44.538209 129.854651 C 46.249382 126.650852 48.044253 123.484253 49.913523 120.364154 C 51.782793 117.248704 53.726462 114.175103 55.749179 111.152652 C 57.767246 108.130201 59.859713 105.154249 62.026578 102.234096 C 64.193443 99.313943 66.430057 96.449589 68.73642 93.636384 C 71.042783 90.827829 73.418894 88.075074 75.860105 85.378117 C 78.301316 82.68581 80.807626 80.053953 83.379034 77.482544 C 85.950443 74.911135 88.58695 72.404826 91.279257 69.958965 C 93.976213 67.517755 96.728969 65.146293 99.537524 62.83528 C 102.350729 60.528917 105.215083 58.292303 108.135236 56.125438 C 111.055388 53.963223 114.026691 51.866107 117.053792 49.848039 C 120.076243 47.825322 123.145194 45.881653 126.265294 44.012383 C 129.385393 42.143113 132.547342 40.352892 135.755791 38.63707 C 138.964239 36.921247 142.209887 35.289123 145.497384 33.731398 C 148.784881 32.178323 152.109577 30.704297 155.466823 29.31397 C 158.828719 27.923642 162.218515 26.612363 165.64086 25.389433 C 169.067854 24.161853 172.518099 23.022621 176.000893 21.967088 C 179.479037 20.911555 182.98043 19.94437 186.509724 19.060885 C 190.039017 18.177399 193.58226 17.377612 197.148752 16.670823 C 200.715245 15.959385 204.300337 15.336295 207.894729 14.806203 C 211.493771 14.271462 215.102113 13.825069 218.719755 13.471675 C 222.337397 13.11363 225.964338 12.843935 229.59593 12.667238 C 233.227521 12.49054 236.863763 12.402192 240.500004 12.402192 C 244.136246 12.402192 247.772487 12.49054 251.404079 12.667238 C 255.03567 12.843935 258.662612 13.11363 262.280254 13.471675 C 265.897895 13.825069 269.506237 14.271462 273.105279 14.806203 C 276.699672 15.336295 280.284764 15.959385 283.851256 16.670823 C 287.417749 17.377612 290.960992 18.177399 294.490285 19.060885 C 298.019578 19.94437 301.520972 20.911555 304.999116 21.967088 C 308.48191 23.022621 311.932154 24.161853 315.359149 25.389433 C 318.781494 26.612363 322.171289 27.923642 325.533185 29.31397 C 328.890431 30.704297 332.215128 32.178323 335.502625 33.731398 C 338.790122 35.289123 342.03577 36.921247 345.244218 38.63707 C 348.452666 40.352892 351.614615 42.143113 354.734715 44.012383 C 357.854815 45.881653 360.923765 47.825322 363.946217 49.848039 C 366.973318 51.866107 369.94462 53.963223 372.864773 56.125438 C 375.784926 58.292303 378.64928 60.528917 381.462485 62.83528 C 384.27104 65.146293 387.023795 67.517755 389.720752 69.958965 C 392.413058 72.404826 395.049566 74.911135 397.620975 77.482544 C 400.192383 80.053953 402.698693 82.68581 405.139904 85.378117 C 407.581114 88.075074 409.957226 90.827829 412.263589 93.636384 C 414.569952 96.449589 416.806566 99.313943 418.973431 102.234096 C 421.140296 105.154249 423.232762 108.130201 425.25083 111.152652 C 427.273547 114.175103 429.217216 117.248704 431.086486 120.364154 C 432.955756 123.484253 434.750627 126.650852 436.461799 129.854651 C 438.177622 133.063099 439.809745 136.308747 441.36747 139.596244 C 442.920545 142.883741 444.394572 146.208438 445.784899 149.565683 C 447.179877 152.927579 448.486506 156.317375 449.709436 159.74437 C 450.937016 163.166714 452.076248 166.616959 453.131781 170.099753 C 454.187314 173.577897 455.159148 177.08394 456.042634 180.608584 C 456.92612 184.137877 457.721257 187.68577 458.432696 191.252262 C 459.139484 194.818755 459.762574 198.399197 460.297315 201.998239 C 460.827407 205.592631 461.2738 209.200973 461.631844 212.818615 C 461.985238 216.440907 462.254934 220.063198 462.431631 223.69944 C 462.612978 227.331031 462.701327 230.962623 462.701327 234.598864 Z M 462.701327 234.598864 " stroke="#4267b2" stroke-width="1" stroke-opacity="1" stroke-miterlimit="10"/></g><g clip-path="url(#8c6f2885e5)"><path fill="#ffffff" d="M 231.351562 55.902344 C 216.480469 58.589844 211.359375 61.113281 202.789062 65.984375 C 193.632812 71.191406 187.246094 76.652344 182.878906 81.105469 C 168.597656 95.890625 165.40625 109.667969 162.71875 120.335938 C 158.6875 136.046875 159.105469 150.832031 159.105469 150.832031 L 159.105469 162.339844 L 129.117188 162.339844 L 129.117188 214.507812 L 159.105469 214.507812 L 159.105469 372.019531 C 168.347656 373.449219 177.839844 374.203125 187.5 374.203125 C 201.78125 374.203125 215.726562 372.609375 229.082031 369.585938 L 229.082031 214.507812 L 274.699219 214.507812 L 274.699219 162.339844 L 229.082031 162.339844 L 229.082031 151.25 C 229.082031 151.25 229.082031 149.234375 229.082031 148.984375 C 229.082031 148.730469 229.082031 148.394531 229.082031 148.144531 C 229.082031 145.875 229.167969 142.515625 229.671875 139.574219 C 230.929688 131.929688 233.535156 125.964844 237.902344 120.671875 C 242.945312 114.625 248.824219 112.019531 255.378906 111.011719 C 271.589844 108.492188 285.117188 114.121094 285.117188 114.121094 L 287.636719 59.265625 C 287.636719 59.265625 277.472656 55.988281 260.667969 54.8125 C 248.824219 53.972656 238.324219 54.644531 231.351562 55.902344 Z M 231.351562 55.902344 " fill-opacity="1" fill-rule="nonzero"/></g><g clip-path="url(#609467907b)"><path stroke-linecap="butt" transform="matrix(0.840067, 0, 0, 0.840067, -14.536187, -9.621801)" fill="none" stroke-linejoin="miter" d="M 292.700064 77.998686 C 274.997799 81.197834 268.901747 84.201686 258.699811 90.000143 C 247.800387 96.198493 240.197759 102.699088 234.999143 108.000003 C 217.999017 125.599969 214.200028 142.000255 211.000879 154.699201 C 206.202157 173.4012 206.699699 191.001166 206.699699 191.001166 L 206.699699 204.699846 L 171.002223 204.699846 L 171.002223 266.799596 L 206.699699 266.799596 L 206.699699 454.298527 C 217.701421 456.0004 229.00074 456.897835 240.500004 456.897835 C 257.500131 456.897835 274.100363 455.000666 289.998457 451.401624 L 289.998457 266.799596 L 344.300283 266.799596 L 344.300283 204.699846 L 289.998457 204.699846 L 289.998457 191.498708 C 289.998457 191.498708 289.998457 189.099347 289.998457 188.801752 C 289.998457 188.499507 289.998457 188.099613 289.998457 187.802018 C 289.998457 185.100411 290.100756 181.101476 290.700596 177.600082 C 292.197872 168.500179 295.299372 161.399743 300.497988 155.099094 C 306.501042 147.90101 313.499179 144.79951 321.301753 143.59983 C 340.598943 140.600628 356.701633 147.30117 356.701633 147.30117 L 359.700835 82.002271 C 359.700835 82.002271 347.60173 78.100984 327.597752 76.701357 C 313.499179 75.701623 301.00018 76.50141 292.700064 77.998686 Z M 292.700064 77.998686 " stroke="#ffffff" stroke-width="1" stroke-opacity="1" stroke-miterlimit="10"/></g></svg>