<svg xmlns="http://www.w3.org/2000/svg" xmlns:xlink="http://www.w3.org/1999/xlink" width="500" zoomAndPan="magnify" viewBox="0 0 375 374.999991" height="500" preserveAspectRatio="xMidYMid meet" version="1.0"><defs><clipPath id="cb2a6a5219"><path d="M 65.023438 18 L 310 18 L 310 357.601562 L 65.023438 357.601562 Z M 65.023438 18 " clip-rule="nonzero"/></clipPath></defs><g clip-path="url(#cb2a6a5219)"><path fill="#ffffff" d="M 309.980469 34.609375 L 309.980469 314.140625 L 293.65625 317.023438 L 293.65625 73.195312 C 293.65625 59.242188 282.300781 47.828125 268.289062 47.828125 L 129.089844 47.828125 L 291.339844 18.960938 C 301.054688 17.265625 309.980469 24.722656 309.980469 34.609375 Z M 282.242188 75.117188 L 282.242188 341.824219 C 282.242188 350.578125 275.183594 357.695312 266.425781 357.695312 L 80.84375 357.695312 C 72.144531 357.695312 65.023438 350.578125 65.023438 341.824219 L 65.023438 75.117188 C 65.023438 66.359375 72.144531 59.242188 80.84375 59.242188 L 266.425781 59.242188 C 275.183594 59.242188 282.242188 66.359375 282.242188 75.117188 Z M 239.082031 267.058594 L 181.910156 209.886719 L 196.839844 194.960938 L 210.679688 208.800781 L 217.089844 202.394531 C 232.59375 186.886719 239.296875 164.640625 234.933594 143.152344 L 175.054688 203.03125 L 166.703125 194.679688 L 170.035156 191.34375 C 174.332031 187.050781 174.332031 180.085938 170.035156 175.789062 L 138.226562 143.980469 C 136.945312 142.699219 134.871094 142.699219 133.589844 143.980469 C 132.3125 145.261719 132.3125 147.335938 133.589844 148.617188 L 159.335938 174.363281 C 160.25 175.273438 160.25 176.75 159.335938 177.664062 C 158.425781 178.574219 156.945312 178.574219 156.035156 177.664062 L 130.289062 151.917969 C 129.007812 150.636719 126.933594 150.636719 125.652344 151.917969 L 125.335938 152.234375 C 124.058594 153.515625 124.058594 155.589844 125.335938 156.871094 L 151.082031 182.617188 C 151.996094 183.527344 151.996094 185.003906 151.082031 185.917969 C 150.171875 186.828125 148.691406 186.828125 147.78125 185.917969 L 122.035156 160.171875 C 120.753906 158.890625 118.679688 158.890625 117.398438 160.171875 L 117.082031 160.488281 C 115.804688 161.769531 115.804688 163.84375 117.082031 165.125 L 142.828125 190.871094 C 143.742188 191.78125 143.742188 193.257812 142.828125 194.171875 C 141.917969 195.082031 140.4375 195.082031 139.527344 194.171875 L 113.78125 168.425781 C 112.5 167.144531 110.425781 167.144531 109.144531 168.425781 C 107.867188 169.707031 107.867188 171.78125 109.144531 173.058594 L 140.957031 204.871094 C 145.25 209.164062 152.214844 209.164062 156.511719 204.871094 L 159.84375 201.535156 L 168.199219 209.890625 L 111.027344 267.058594 L 117.882812 273.917969 L 175.054688 216.746094 L 232.226562 273.917969 Z M 239.082031 267.058594 " fill-opacity="1" fill-rule="nonzero"/></g></svg>