<svg xmlns="http://www.w3.org/2000/svg" xmlns:xlink="http://www.w3.org/1999/xlink" width="500" zoomAndPan="magnify" viewBox="0 0 375 374.999991" height="500" preserveAspectRatio="xMidYMid meet" version="1.0"><defs><clipPath id="c98ffb65aa"><path d="M 61 18 L 361.421875 18 L 361.421875 322 L 61 322 Z M 61 18 " clip-rule="nonzero"/></clipPath></defs><g clip-path="url(#c98ffb65aa)"><path fill="#ffffff" d="M 141.984375 18.257812 C 134.589844 18.257812 128.640625 24.203125 128.640625 31.585938 L 128.640625 77.058594 C 128.640625 84.429688 134.585938 90.375 141.984375 90.375 C 149.355469 90.375 155.308594 84.429688 155.308594 77.058594 L 155.308594 61.539062 C 161.441406 65.851562 165.082031 72.894531 165.082031 80.371094 C 165.082031 93.144531 154.738281 103.496094 141.984375 103.46875 C 129.207031 103.496094 118.859375 93.144531 118.886719 80.371094 L 118.886719 42.1875 L 102.535156 42.1875 C 93.433594 42.1875 84.769531 44.492188 77.960938 49.894531 C 71.1875 55.28125 66.890625 63.683594 65.988281 73.234375 L 61.148438 149.589844 C 64.878906 148.839844 68.703125 148.554688 72.613281 148.859375 C 75.300781 149.070312 78.015625 149.714844 80.679688 150.726562 L 82.261719 120.355469 L 331.597656 120.355469 L 340.054688 284.429688 C 340.335938 289.734375 339.15625 293.902344 336.898438 296.667969 C 334.648438 299.410156 331.675781 301.117188 326.734375 301.117188 L 182.9375 301.117188 C 189.398438 306.003906 193.699219 313.996094 194.785156 321.105469 L 328.976562 321.105469 C 339.070312 321.105469 348.148438 316.683594 353.890625 309.625 C 359.632812 302.558594 361.800781 293.25 361.1875 283.574219 L 347.835938 73.230469 C 346.925781 63.679688 342.636719 55.273438 335.855469 49.890625 C 329.058594 44.488281 320.394531 42.183594 311.289062 42.183594 L 285.1875 42.183594 L 285.1875 31.578125 C 285.1875 24.203125 279.214844 18.253906 271.84375 18.253906 C 264.4375 18.253906 258.519531 24.199219 258.519531 31.578125 L 258.519531 77.054688 C 258.519531 84.421875 264.4375 90.367188 271.84375 90.367188 C 279.214844 90.367188 285.160156 84.421875 285.1875 77.054688 L 285.1875 61.53125 C 291.292969 65.847656 294.941406 72.890625 294.941406 80.367188 C 294.941406 93.140625 284.59375 103.488281 271.84375 103.464844 C 259.089844 103.464844 248.738281 93.113281 248.738281 80.367188 L 248.738281 42.183594 L 155.308594 42.183594 L 155.308594 31.578125 C 155.308594 24.203125 149.355469 18.257812 141.984375 18.257812 Z M 141.984375 18.257812 " fill-opacity="1" fill-rule="evenodd"/></g><path fill="#ffffff" d="M 117.207031 154.347656 L 150.367188 154.347656 C 155.230469 154.347656 159.132812 158.273438 159.132812 163.140625 L 159.132812 188.984375 C 159.132812 193.84375 155.226562 197.777344 150.367188 197.777344 L 117.207031 197.777344 C 112.34375 197.777344 108.441406 193.84375 108.441406 188.984375 L 108.441406 163.140625 C 108.441406 158.273438 112.34375 154.347656 117.207031 154.347656 Z M 117.207031 154.347656 " fill-opacity="1" fill-rule="evenodd"/><path fill="#ffffff" d="M 190.332031 154.347656 L 223.496094 154.347656 C 228.355469 154.347656 232.261719 158.273438 232.261719 163.140625 L 232.261719 188.984375 C 232.261719 193.84375 228.351562 197.777344 223.496094 197.777344 L 190.332031 197.777344 C 185.472656 197.777344 181.566406 193.84375 181.566406 188.984375 L 181.566406 163.140625 C 181.566406 158.273438 185.472656 154.347656 190.332031 154.347656 Z M 190.332031 154.347656 " fill-opacity="1" fill-rule="evenodd"/><path fill="#ffffff" d="M 263.460938 154.347656 L 296.597656 154.347656 C 301.457031 154.347656 305.390625 158.273438 305.390625 163.140625 L 305.390625 188.984375 C 305.390625 193.84375 301.457031 197.777344 296.597656 197.777344 L 263.460938 197.777344 C 258.597656 197.777344 254.664062 193.84375 254.664062 188.984375 L 254.664062 163.140625 C 254.664062 158.273438 258.597656 154.347656 263.460938 154.347656 Z M 263.460938 154.347656 " fill-opacity="1" fill-rule="evenodd"/><path fill="#ffffff" d="M 117.207031 223.71875 L 150.367188 223.71875 C 155.230469 223.71875 159.132812 227.628906 159.132812 232.484375 L 159.132812 258.355469 C 159.132812 263.21875 155.226562 267.121094 150.367188 267.121094 L 117.207031 267.121094 C 112.34375 267.121094 108.441406 263.210938 108.441406 258.355469 L 108.441406 232.488281 C 108.441406 227.628906 112.34375 223.71875 117.207031 223.71875 Z M 117.207031 223.71875 " fill-opacity="1" fill-rule="evenodd"/><path fill="#ffffff" d="M 190.332031 223.71875 L 223.496094 223.71875 C 228.355469 223.71875 232.261719 227.628906 232.261719 232.484375 L 232.261719 258.355469 C 232.261719 263.21875 228.351562 267.121094 223.496094 267.121094 L 190.332031 267.121094 C 185.472656 267.121094 181.566406 263.210938 181.566406 258.355469 L 181.566406 232.488281 C 181.566406 227.628906 185.472656 223.71875 190.332031 223.71875 Z M 190.332031 223.71875 " fill-opacity="1" fill-rule="evenodd"/><path fill="#ffffff" d="M 309.964844 220.613281 L 280.066406 257.917969 C 278.742188 259.570312 276.132812 259.421875 274.628906 257.917969 L 266.351562 247.234375 C 262.003906 241.648438 265.371094 236.246094 269.921875 239.707031 L 277.351562 245.324219 L 297.96875 223.980469 C 297.503906 223.902344 297.035156 223.804688 296.542969 223.804688 L 263.433594 223.804688 C 258.601562 223.804688 254.667969 227.710938 254.667969 232.542969 L 254.667969 258.367188 C 254.667969 263.226562 258.601562 267.132812 263.433594 267.132812 L 296.546875 267.132812 C 301.410156 267.132812 305.3125 263.222656 305.3125 258.367188 L 305.3125 240.699219 L 314.078125 226.832031 C 317.316406 221.683594 312.761719 217.125 309.964844 220.613281 Z M 309.964844 220.613281 " fill-opacity="1" fill-rule="evenodd"/><path fill="#ffffff" d="M 49.457031 167.121094 C 47.472656 168.367188 45.585938 169.789062 43.851562 171.3125 C 13.429688 198.113281 26.929688 261.699219 48.738281 295.269531 L 50.132812 297.441406 C 71.910156 331.015625 124.476562 369.277344 161.339844 352.410156 C 163.460938 351.453125 165.503906 350.285156 167.472656 348.992188 C 181.15625 339.859375 190.082031 323.308594 177.53125 312.003906 L 141.527344 284.453125 C 137.648438 281.480469 132.289062 281.277344 128.175781 283.9375 L 118.378906 290.300781 C 110.769531 293.582031 100.242188 291.769531 95.714844 284.761719 L 78.875 258.816406 C 74.320312 251.804688 76.960938 241.460938 83.066406 235.847656 L 92.867188 229.484375 C 96.976562 226.824219 98.96875 221.855469 97.832031 217.09375 L 87.328125 172.992188 C 82.128906 156.929688 63.375 158.328125 49.457031 167.121094 Z M 49.457031 167.121094 " fill-opacity="1" fill-rule="nonzero"/></svg>