<svg xmlns="http://www.w3.org/2000/svg" xmlns:xlink="http://www.w3.org/1999/xlink" width="500" zoomAndPan="magnify" viewBox="0 0 375 374.999991" height="500" preserveAspectRatio="xMidYMid meet" version="1.0"><defs><clipPath id="e65241862d"><path d="M 5.054688 0.375 L 370.304688 0.375 L 370.304688 370 L 5.054688 370 Z M 5.054688 0.375 " clip-rule="nonzero"/></clipPath></defs><g clip-path="url(#e65241862d)"><path fill="#278d46" d="M 370.292969 182.847656 C 370.292969 283.585938 288.542969 365.253906 187.703125 365.253906 C 180.347656 365.265625 173.019531 364.832031 165.71875 363.953125 C 158.417969 363.078125 151.195312 361.761719 144.054688 360.007812 C 136.914062 358.257812 129.902344 356.078125 123.027344 353.476562 C 116.148438 350.871094 109.453125 347.863281 102.941406 344.449219 C 102.871094 344.480469 102.800781 344.511719 102.726562 344.542969 L 47.6875 367.390625 C 30.464844 374.542969 13.097656 357.515625 19.921875 340.179688 L 39.765625 289.78125 C 34.152344 282.058594 29.183594 273.941406 24.855469 265.4375 C 20.523438 256.929688 16.890625 248.136719 13.949219 239.058594 C 11.007812 229.980469 8.792969 220.726562 7.3125 211.300781 C 5.832031 201.875 5.097656 192.386719 5.113281 182.847656 C 5.113281 82.105469 86.863281 0.4375 187.703125 0.4375 C 288.542969 0.4375 370.292969 82.105469 370.292969 182.847656 Z M 370.292969 182.847656 " fill-opacity="1" fill-rule="nonzero"/></g><path fill="#ffffff" d="M 346.601562 182.847656 C 346.601562 185.445312 346.535156 188.039062 346.410156 190.636719 C 346.28125 193.230469 346.089844 195.820312 345.835938 198.40625 C 345.578125 200.992188 345.261719 203.566406 344.878906 206.136719 C 344.5 208.707031 344.054688 211.265625 343.546875 213.816406 C 343.039062 216.363281 342.46875 218.894531 341.839844 221.417969 C 341.207031 223.9375 340.511719 226.441406 339.757812 228.925781 C 339.003906 231.410156 338.1875 233.878906 337.3125 236.324219 C 336.433594 238.769531 335.5 241.191406 334.503906 243.59375 C 333.507812 245.992188 332.457031 248.367188 331.34375 250.714844 C 330.230469 253.0625 329.0625 255.382812 327.835938 257.675781 C 326.613281 259.964844 325.332031 262.226562 323.992188 264.453125 C 322.65625 266.683594 321.265625 268.875 319.820312 271.035156 C 318.375 273.195312 316.878906 275.320312 315.328125 277.40625 C 313.78125 279.492188 312.179688 281.542969 310.53125 283.550781 C 308.882812 285.558594 307.183594 287.523438 305.4375 289.449219 C 303.691406 291.375 301.898438 293.253906 300.058594 295.09375 C 298.222656 296.929688 296.339844 298.71875 294.410156 300.464844 C 292.484375 302.210938 290.515625 303.90625 288.503906 305.554688 C 286.496094 307.203125 284.445312 308.800781 282.359375 310.347656 C 280.269531 311.894531 278.144531 313.390625 275.980469 314.832031 C 273.820312 316.277344 271.621094 317.667969 269.390625 319 C 267.160156 320.335938 264.898438 321.617188 262.605469 322.84375 C 260.3125 324.066406 257.992188 325.234375 255.640625 326.34375 C 253.289062 327.457031 250.914062 328.507812 248.507812 329.503906 C 246.105469 330.496094 243.679688 331.429688 241.234375 332.304688 C 238.785156 333.183594 236.316406 333.996094 233.828125 334.75 C 231.339844 335.503906 228.832031 336.199219 226.3125 336.828125 C 223.789062 337.460938 221.253906 338.027344 218.703125 338.535156 C 216.152344 339.042969 213.589844 339.488281 211.015625 339.867188 C 208.445312 340.25 205.863281 340.566406 203.277344 340.820312 C 200.6875 341.074219 198.097656 341.265625 195.5 341.394531 C 192.902344 341.523438 190.300781 341.585938 187.703125 341.585938 C 185.101562 341.585938 182.503906 341.523438 179.90625 341.394531 C 177.308594 341.265625 174.714844 341.074219 172.128906 340.820312 C 169.539062 340.566406 166.960938 340.25 164.386719 339.867188 C 161.816406 339.488281 159.253906 339.042969 156.703125 338.535156 C 154.152344 338.027344 151.617188 337.460938 149.09375 336.828125 C 146.570312 336.195312 144.066406 335.503906 141.578125 334.75 C 139.085938 333.996094 136.621094 333.183594 134.171875 332.304688 C 131.722656 331.429688 129.296875 330.496094 126.894531 329.503906 C 124.492188 328.507812 122.113281 327.457031 119.765625 326.34375 C 117.414062 325.234375 115.089844 324.066406 112.796875 322.84375 C 110.503906 321.617188 108.242188 320.335938 106.011719 319 C 103.78125 317.667969 101.585938 316.277344 99.421875 314.832031 C 97.261719 313.390625 95.136719 311.894531 93.046875 310.347656 C 90.957031 308.800781 88.910156 307.203125 86.898438 305.554688 C 84.886719 303.90625 82.917969 302.210938 80.992188 300.464844 C 79.066406 298.71875 77.183594 296.929688 75.34375 295.09375 C 73.503906 293.253906 71.710938 291.375 69.964844 289.449219 C 68.21875 287.523438 66.523438 285.558594 64.871094 283.550781 C 63.222656 281.542969 61.625 279.492188 60.074219 277.40625 C 58.523438 275.320312 57.027344 273.195312 55.582031 271.035156 C 54.136719 268.875 52.746094 266.683594 51.410156 264.453125 C 50.074219 262.226562 48.792969 259.964844 47.566406 257.675781 C 46.339844 255.382812 45.171875 253.0625 44.058594 250.714844 C 42.949219 248.367188 41.894531 245.992188 40.898438 243.59375 C 39.902344 241.191406 38.96875 238.769531 38.09375 236.324219 C 37.214844 233.878906 36.402344 231.410156 35.644531 228.925781 C 34.890625 226.441406 34.199219 223.9375 33.566406 221.417969 C 32.933594 218.894531 32.363281 216.363281 31.855469 213.816406 C 31.351562 211.265625 30.90625 208.707031 30.523438 206.136719 C 30.140625 203.566406 29.824219 200.992188 29.570312 198.40625 C 29.3125 195.820312 29.125 193.230469 28.996094 190.636719 C 28.867188 188.039062 28.804688 185.445312 28.804688 182.847656 C 28.804688 180.246094 28.867188 177.652344 28.996094 175.058594 C 29.125 172.460938 29.3125 169.871094 29.570312 167.285156 C 29.824219 164.703125 30.140625 162.125 30.523438 159.554688 C 30.90625 156.984375 31.351562 154.425781 31.855469 151.878906 C 32.363281 149.328125 32.933594 146.796875 33.566406 144.273438 C 34.199219 141.753906 34.890625 139.253906 35.644531 136.765625 C 36.402344 134.28125 37.214844 131.8125 38.09375 129.367188 C 38.96875 126.921875 39.902344 124.5 40.898438 122.097656 C 41.894531 119.699219 42.949219 117.324219 44.058594 114.976562 C 45.171875 112.628906 46.339844 110.308594 47.566406 108.015625 C 48.792969 105.726562 50.074219 103.464844 51.410156 101.238281 C 52.746094 99.007812 54.136719 96.816406 55.582031 94.65625 C 57.027344 92.496094 58.523438 90.371094 60.074219 88.285156 C 61.625 86.199219 63.222656 84.152344 64.871094 82.140625 C 66.523438 80.132812 68.21875 78.167969 69.964844 76.242188 C 71.710938 74.316406 73.503906 72.4375 75.34375 70.601562 C 77.183594 68.761719 79.066406 66.972656 80.992188 65.226562 C 82.917969 63.484375 84.886719 61.785156 86.898438 60.136719 C 88.910156 58.488281 90.957031 56.890625 93.046875 55.34375 C 95.136719 53.796875 97.261719 52.300781 99.421875 50.859375 C 101.585938 49.414062 103.78125 48.027344 106.011719 46.691406 C 108.242188 45.355469 110.503906 44.074219 112.796875 42.851562 C 115.089844 41.625 117.414062 40.457031 119.765625 39.347656 C 122.113281 38.234375 124.492188 37.183594 126.894531 36.1875 C 129.296875 35.195312 131.722656 34.261719 134.171875 33.386719 C 136.621094 32.511719 139.085938 31.695312 141.578125 30.941406 C 144.066406 30.1875 146.570312 29.496094 149.09375 28.863281 C 151.617188 28.230469 154.152344 27.664062 156.703125 27.15625 C 159.253906 26.648438 161.816406 26.207031 164.386719 25.824219 C 166.960938 25.441406 169.539062 25.125 172.128906 24.871094 C 174.714844 24.617188 177.308594 24.425781 179.90625 24.296875 C 182.503906 24.167969 185.101562 24.105469 187.703125 24.105469 C 190.300781 24.105469 192.902344 24.167969 195.5 24.296875 C 198.097656 24.425781 200.6875 24.617188 203.277344 24.871094 C 205.863281 25.125 208.445312 25.441406 211.015625 25.824219 C 213.589844 26.207031 216.152344 26.648438 218.703125 27.15625 C 221.253906 27.664062 223.789062 28.230469 226.3125 28.863281 C 228.832031 29.496094 231.339844 30.1875 233.828125 30.941406 C 236.316406 31.695312 238.785156 32.511719 241.234375 33.386719 C 243.679688 34.261719 246.105469 35.195312 248.507812 36.1875 C 250.914062 37.183594 253.289062 38.234375 255.640625 39.347656 C 257.992188 40.457031 260.3125 41.625 262.605469 42.851562 C 264.898438 44.074219 267.160156 45.355469 269.390625 46.691406 C 271.621094 48.027344 273.820312 49.414062 275.980469 50.859375 C 278.144531 52.300781 280.269531 53.796875 282.359375 55.34375 C 284.445312 56.890625 286.496094 58.488281 288.503906 60.136719 C 290.515625 61.785156 292.484375 63.484375 294.410156 65.226562 C 296.339844 66.972656 298.222656 68.761719 300.058594 70.601562 C 301.898438 72.4375 303.691406 74.316406 305.4375 76.242188 C 307.183594 78.167969 308.882812 80.132812 310.53125 82.140625 C 312.179688 84.152344 313.78125 86.199219 315.328125 88.285156 C 316.878906 90.371094 318.375 92.496094 319.820312 94.65625 C 321.265625 96.816406 322.65625 99.007812 323.992188 101.238281 C 325.332031 103.464844 326.613281 105.726562 327.835938 108.015625 C 329.0625 110.308594 330.230469 112.628906 331.34375 114.976562 C 332.457031 117.324219 333.507812 119.699219 334.503906 122.097656 C 335.5 124.5 336.433594 126.921875 337.3125 129.367188 C 338.1875 131.8125 339.003906 134.28125 339.757812 136.765625 C 340.511719 139.253906 341.207031 141.753906 341.839844 144.273438 C 342.46875 146.796875 343.039062 149.328125 343.546875 151.878906 C 344.054688 154.425781 344.5 156.984375 344.878906 159.554688 C 345.261719 162.125 345.578125 164.703125 345.835938 167.285156 C 346.089844 169.871094 346.28125 172.460938 346.410156 175.058594 C 346.535156 177.652344 346.601562 180.246094 346.601562 182.847656 Z M 346.601562 182.847656 " fill-opacity="1" fill-rule="nonzero"/><path fill="#278d46" d="M 324.34375 182.847656 C 324.34375 185.078125 324.289062 187.3125 324.179688 189.542969 C 324.070312 191.773438 323.90625 194.003906 323.6875 196.226562 C 323.46875 198.449219 323.195312 200.664062 322.867188 202.875 C 322.539062 205.085938 322.15625 207.285156 321.71875 209.476562 C 321.28125 211.667969 320.792969 213.847656 320.25 216.015625 C 319.707031 218.179688 319.109375 220.332031 318.460938 222.472656 C 317.8125 224.609375 317.109375 226.730469 316.355469 228.832031 C 315.605469 230.9375 314.800781 233.019531 313.945312 235.085938 C 313.085938 237.148438 312.183594 239.191406 311.226562 241.210938 C 310.269531 243.230469 309.265625 245.222656 308.210938 247.195312 C 307.15625 249.164062 306.054688 251.109375 304.90625 253.023438 C 303.753906 254.941406 302.558594 256.828125 301.316406 258.683594 C 300.074219 260.542969 298.785156 262.367188 297.453125 264.164062 C 296.121094 265.957031 294.746094 267.71875 293.328125 269.445312 C 291.910156 271.171875 290.449219 272.863281 288.949219 274.519531 C 287.445312 276.171875 285.902344 277.792969 284.324219 279.371094 C 282.742188 280.949219 281.121094 282.492188 279.464844 283.992188 C 277.808594 285.492188 276.117188 286.949219 274.386719 288.367188 C 272.660156 289.785156 270.894531 291.160156 269.101562 292.488281 C 267.304688 293.820312 265.476562 295.105469 263.617188 296.347656 C 261.757812 297.589844 259.867188 298.78125 257.949219 299.929688 C 256.03125 301.082031 254.085938 302.179688 252.113281 303.234375 C 250.144531 304.289062 248.144531 305.292969 246.125 306.246094 C 244.101562 307.203125 242.058594 308.105469 239.992188 308.960938 C 237.925781 309.816406 235.839844 310.621094 233.734375 311.371094 C 231.628906 312.125 229.507812 312.824219 227.367188 313.476562 C 225.226562 314.125 223.074219 314.71875 220.902344 315.261719 C 218.734375 315.804688 216.554688 316.292969 214.359375 316.730469 C 212.167969 317.164062 209.964844 317.546875 207.75 317.875 C 205.539062 318.203125 203.320312 318.476562 201.09375 318.695312 C 198.871094 318.914062 196.640625 319.078125 194.40625 319.1875 C 192.171875 319.296875 189.9375 319.351562 187.703125 319.351562 C 185.464844 319.351562 183.230469 319.296875 180.996094 319.1875 C 178.765625 319.078125 176.535156 318.914062 174.308594 318.695312 C 172.082031 318.476562 169.863281 318.203125 167.652344 317.875 C 165.441406 317.546875 163.238281 317.164062 161.042969 316.730469 C 158.851562 316.292969 156.667969 315.804688 154.5 315.261719 C 152.332031 314.71875 150.175781 314.125 148.035156 313.476562 C 145.898438 312.824219 143.773438 312.125 141.667969 311.371094 C 139.5625 310.621094 137.476562 309.816406 135.410156 308.960938 C 133.34375 308.105469 131.300781 307.203125 129.28125 306.246094 C 127.257812 305.292969 125.261719 304.289062 123.289062 303.234375 C 121.316406 302.179688 119.371094 301.082031 117.453125 299.929688 C 115.535156 298.78125 113.648438 297.589844 111.789062 296.347656 C 109.929688 295.105469 108.101562 293.820312 106.304688 292.488281 C 104.507812 291.160156 102.746094 289.785156 101.015625 288.367188 C 99.289062 286.949219 97.59375 285.492188 95.9375 283.992188 C 94.28125 282.492188 92.664062 280.949219 91.082031 279.371094 C 89.5 277.792969 87.957031 276.171875 86.457031 274.519531 C 84.953125 272.863281 83.496094 271.171875 82.074219 269.445312 C 80.65625 267.71875 79.28125 265.957031 77.949219 264.164062 C 76.617188 262.367188 75.332031 260.542969 74.085938 258.683594 C 72.84375 256.828125 71.648438 254.941406 70.5 253.023438 C 69.351562 251.109375 68.25 249.164062 67.195312 247.195312 C 66.140625 245.222656 65.132812 243.230469 64.179688 241.210938 C 63.222656 239.191406 62.316406 237.148438 61.460938 235.085938 C 60.605469 233.019531 59.800781 230.9375 59.046875 228.832031 C 58.292969 226.730469 57.59375 224.609375 56.941406 222.472656 C 56.292969 220.332031 55.699219 218.179688 55.15625 216.015625 C 54.609375 213.847656 54.121094 211.667969 53.683594 209.476562 C 53.25 207.285156 52.867188 205.085938 52.539062 202.875 C 52.210938 200.664062 51.9375 198.449219 51.71875 196.226562 C 51.5 194.003906 51.332031 191.773438 51.222656 189.542969 C 51.113281 187.3125 51.058594 185.078125 51.058594 182.847656 C 51.058594 180.613281 51.113281 178.378906 51.222656 176.148438 C 51.332031 173.917969 51.5 171.6875 51.71875 169.464844 C 51.9375 167.242188 52.210938 165.027344 52.539062 162.816406 C 52.867188 160.605469 53.25 158.40625 53.683594 156.214844 C 54.121094 154.023438 54.609375 151.84375 55.15625 149.675781 C 55.699219 147.511719 56.292969 145.359375 56.941406 143.21875 C 57.59375 141.082031 58.292969 138.960938 59.046875 136.859375 C 59.800781 134.753906 60.605469 132.671875 61.460938 130.605469 C 62.316406 128.542969 63.222656 126.5 64.179688 124.480469 C 65.132812 122.460938 66.140625 120.46875 67.195312 118.496094 C 68.25 116.527344 69.351562 114.582031 70.5 112.667969 C 71.648438 110.75 72.84375 108.863281 74.085938 107.007812 C 75.332031 105.148438 76.617188 103.324219 77.949219 101.527344 C 79.28125 99.734375 80.65625 97.972656 82.074219 96.246094 C 83.496094 94.519531 84.953125 92.828125 86.457031 91.171875 C 87.957031 89.519531 89.5 87.902344 91.082031 86.320312 C 92.664062 84.742188 94.28125 83.203125 95.9375 81.699219 C 97.59375 80.199219 99.289062 78.742188 101.015625 77.324219 C 102.746094 75.90625 104.507812 74.535156 106.304688 73.203125 C 108.101562 71.871094 109.929688 70.585938 111.789062 69.34375 C 113.648438 68.101562 115.535156 66.910156 117.453125 65.761719 C 119.371094 64.613281 121.316406 63.511719 123.289062 62.457031 C 125.261719 61.40625 127.257812 60.398438 129.28125 59.445312 C 131.300781 58.488281 133.34375 57.585938 135.410156 56.730469 C 137.476562 55.875 139.5625 55.070312 141.667969 54.320312 C 143.773438 53.566406 145.898438 52.867188 148.035156 52.21875 C 150.175781 51.570312 152.332031 50.972656 154.5 50.429688 C 156.667969 49.886719 158.851562 49.398438 161.042969 48.960938 C 163.238281 48.527344 165.441406 48.144531 167.652344 47.816406 C 169.863281 47.488281 172.082031 47.214844 174.308594 46.996094 C 176.535156 46.777344 178.765625 46.613281 180.996094 46.503906 C 183.230469 46.394531 185.464844 46.339844 187.703125 46.339844 C 189.9375 46.339844 192.171875 46.394531 194.40625 46.503906 C 196.640625 46.613281 198.871094 46.777344 201.09375 46.996094 C 203.320312 47.214844 205.539062 47.488281 207.75 47.816406 C 209.964844 48.144531 212.167969 48.527344 214.359375 48.960938 C 216.554688 49.398438 218.734375 49.886719 220.902344 50.429688 C 223.074219 50.972656 225.226562 51.570312 227.367188 52.21875 C 229.507812 52.867188 231.628906 53.566406 233.734375 54.320312 C 235.839844 55.070312 237.925781 55.875 239.992188 56.730469 C 242.058594 57.585938 244.101562 58.488281 246.125 59.445312 C 248.144531 60.398438 250.144531 61.40625 252.113281 62.457031 C 254.085938 63.511719 256.03125 64.613281 257.949219 65.761719 C 259.867188 66.910156 261.757812 68.101562 263.617188 69.34375 C 265.476562 70.585938 267.304688 71.871094 269.101562 73.203125 C 270.894531 74.535156 272.660156 75.90625 274.386719 77.324219 C 276.117188 78.742188 277.808594 80.199219 279.464844 81.699219 C 281.121094 83.203125 282.742188 84.742188 284.324219 86.320312 C 285.902344 87.902344 287.445312 89.519531 288.949219 91.171875 C 290.449219 92.828125 291.910156 94.519531 293.328125 96.246094 C 294.746094 97.972656 296.121094 99.734375 297.453125 101.527344 C 298.785156 103.324219 300.074219 105.148438 301.316406 107.007812 C 302.558594 108.863281 303.753906 110.75 304.90625 112.667969 C 306.054688 114.582031 307.15625 116.527344 308.210938 118.496094 C 309.265625 120.46875 310.269531 122.460938 311.226562 124.480469 C 312.183594 126.5 313.085938 128.542969 313.945312 130.605469 C 314.800781 132.671875 315.605469 134.753906 316.355469 136.859375 C 317.109375 138.960938 317.8125 141.082031 318.460938 143.21875 C 319.109375 145.359375 319.707031 147.511719 320.25 149.675781 C 320.792969 151.84375 321.28125 154.023438 321.71875 156.214844 C 322.15625 158.40625 322.539062 160.605469 322.867188 162.816406 C 323.195312 165.027344 323.46875 167.242188 323.6875 169.464844 C 323.90625 171.6875 324.070312 173.917969 324.179688 176.148438 C 324.289062 178.378906 324.34375 180.613281 324.34375 182.847656 Z M 324.34375 182.847656 " fill-opacity="1" fill-rule="nonzero"/><path fill="#ffffff" d="M 170.15625 138.253906 L 164.839844 115.824219 C 164.6875 115.1875 164.503906 114.558594 164.285156 113.9375 C 164.066406 113.320312 163.816406 112.714844 163.535156 112.121094 C 163.253906 111.527344 162.941406 110.949219 162.601562 110.390625 C 162.257812 109.832031 161.886719 109.289062 161.488281 108.769531 C 161.089844 108.25 160.664062 107.75 160.210938 107.273438 C 159.757812 106.796875 159.28125 106.347656 158.785156 105.917969 C 158.285156 105.492188 157.761719 105.09375 157.222656 104.722656 C 156.679688 104.351562 156.121094 104.011719 155.542969 103.699219 C 154.964844 103.386719 154.371094 103.105469 153.765625 102.851562 C 153.15625 102.601562 152.539062 102.386719 151.910156 102.199219 C 151.277344 102.015625 150.640625 101.863281 149.996094 101.746094 C 149.347656 101.628906 148.699219 101.542969 148.042969 101.496094 C 147.386719 101.445312 146.730469 101.429688 146.074219 101.449219 C 145.417969 101.46875 144.765625 101.523438 144.113281 101.613281 C 143.460938 101.703125 142.820312 101.824219 142.179688 101.980469 C 141.542969 102.136719 140.914062 102.324219 140.296875 102.546875 L 128.03125 106.957031 C 127.042969 107.316406 126.085938 107.753906 125.167969 108.273438 C 124.25 108.789062 123.382812 109.382812 122.566406 110.046875 C 121.746094 110.710938 120.992188 111.441406 120.296875 112.234375 C 119.601562 113.023438 118.980469 113.871094 118.429688 114.769531 C 117.875 115.664062 117.40625 116.601562 117.011719 117.578125 C 116.617188 118.558594 116.308594 119.558594 116.085938 120.589844 C 115.863281 121.617188 115.726562 122.660156 115.679688 123.710938 C 115.632812 124.765625 115.675781 125.8125 115.804688 126.859375 C 120.078125 161.546875 139.75 245.46875 230.222656 263.90625 C 231.117188 264.089844 232.019531 264.203125 232.929688 264.253906 C 233.839844 264.304688 234.746094 264.289062 235.65625 264.207031 C 236.5625 264.125 237.460938 263.980469 238.34375 263.765625 C 239.230469 263.554688 240.097656 263.277344 240.945312 262.9375 C 241.789062 262.597656 242.605469 262.199219 243.394531 261.742188 C 244.179688 261.28125 244.929688 260.769531 245.644531 260.203125 C 246.355469 259.632812 247.023438 259.019531 247.644531 258.351562 C 248.269531 257.6875 248.839844 256.980469 249.359375 256.230469 L 256.394531 246.074219 C 256.746094 245.570312 257.066406 245.050781 257.367188 244.515625 C 257.664062 243.980469 257.933594 243.433594 258.179688 242.871094 C 258.421875 242.308594 258.636719 241.738281 258.824219 241.15625 C 259.011719 240.570312 259.171875 239.980469 259.300781 239.382812 C 259.429688 238.785156 259.53125 238.179688 259.601562 237.574219 C 259.667969 236.964844 259.710938 236.355469 259.71875 235.742188 C 259.730469 235.132812 259.710938 234.519531 259.660156 233.910156 C 259.609375 233.300781 259.53125 232.695312 259.421875 232.089844 C 259.3125 231.488281 259.171875 230.894531 259.003906 230.304688 C 258.835938 229.714844 258.640625 229.136719 258.414062 228.566406 C 258.1875 228 257.9375 227.441406 257.65625 226.898438 C 257.375 226.351562 257.070312 225.824219 256.738281 225.308594 C 256.40625 224.792969 256.050781 224.296875 255.667969 223.816406 C 255.289062 223.339844 254.886719 222.878906 254.460938 222.4375 C 254.03125 222 253.585938 221.582031 253.121094 221.183594 C 252.652344 220.789062 252.167969 220.417969 251.664062 220.066406 L 251.542969 219.984375 L 236.074219 209.464844 C 235.242188 208.898438 234.371094 208.402344 233.460938 207.976562 C 232.546875 207.554688 231.609375 207.203125 230.640625 206.929688 C 229.671875 206.65625 228.6875 206.460938 227.6875 206.347656 C 226.6875 206.230469 225.683594 206.195312 224.679688 206.242188 C 223.675781 206.289062 222.679688 206.417969 221.695312 206.625 C 220.710938 206.832031 219.746094 207.117188 218.808594 207.476562 C 217.871094 207.839844 216.964844 208.273438 216.097656 208.78125 C 215.230469 209.289062 214.40625 209.863281 213.628906 210.503906 C 212.859375 211.140625 212.042969 211.714844 211.179688 212.21875 C 210.320312 212.726562 209.421875 213.160156 208.488281 213.523438 C 207.558594 213.886719 206.601562 214.171875 205.625 214.378906 C 204.644531 214.589844 203.65625 214.71875 202.65625 214.769531 C 201.660156 214.820312 200.664062 214.789062 199.667969 214.679688 C 198.671875 214.570312 197.695312 214.382812 196.730469 214.113281 C 195.765625 213.847656 194.828125 213.507812 193.921875 213.089844 C 193.011719 212.671875 192.140625 212.183594 191.3125 211.628906 C 181.902344 205.292969 169.164062 194.792969 160.894531 180.234375 C 160.429688 179.421875 160.027344 178.578125 159.691406 177.707031 C 159.355469 176.835938 159.082031 175.945312 158.878906 175.03125 C 158.675781 174.121094 158.539062 173.199219 158.472656 172.265625 C 158.40625 171.335938 158.410156 170.402344 158.484375 169.472656 C 158.558594 168.539062 158.699219 167.617188 158.910156 166.707031 C 159.125 165.796875 159.402344 164.910156 159.746094 164.039062 C 160.089844 163.171875 160.496094 162.332031 160.96875 161.523438 C 161.4375 160.71875 161.964844 159.949219 162.550781 159.21875 L 166.53125 154.277344 C 167.421875 153.167969 168.179688 151.972656 168.800781 150.691406 C 169.417969 149.40625 169.886719 148.074219 170.199219 146.683594 C 170.515625 145.296875 170.667969 143.890625 170.660156 142.464844 C 170.652344 141.042969 170.484375 139.640625 170.15625 138.253906 Z M 170.15625 138.253906 " fill-opacity="1" fill-rule="nonzero"/></svg>